<?xml version="1.0" encoding="utf-8"?>
<!-- Generator: Adobe Illustrator 27.5.0, SVG Export Plug-In . SVG Version: 6.00 Build 0)  -->
<svg version="1.1" id="Layer_1" xmlns="http://www.w3.org/2000/svg" xmlns:xlink="http://www.w3.org/1999/xlink" x="0px" y="0px"
	 viewBox="0 0 1200 1000" style="enable-background:new 0 0 1200 1000;" xml:space="preserve">

<g>
	<g>
		<path style="fill:#544750;" d="M473.034,909.408c0,3.088-77.763,5.592-173.687,5.592c-95.925,0-173.687-2.503-173.687-5.592
			c0-3.088,77.762-5.592,173.687-5.592C395.271,903.816,473.034,906.32,473.034,909.408z"/>
		<path style="fill:#544750;" d="M775.55,906.253c0,3.088-77.762,5.592-173.687,5.592c-95.924,0-173.687-2.503-173.687-5.592
			c0-3.088,77.762-5.592,173.687-5.592C697.788,900.661,775.55,903.165,775.55,906.253z"/>
		<path style="fill:#544750;" d="M1127.166,906.253c0,3.088-105.434,5.592-235.493,5.592c-130.059,0-235.493-2.503-235.493-5.592
			c0-3.088,105.434-5.592,235.493-5.592C1021.732,900.661,1127.166,903.165,1127.166,906.253z"/>
	</g>
	<g>
		<g>
			<path style="fill:#CCCCCC;" d="M327.707,390.171c0.507,0.422,1.089,1.194,1.742,2.273c3.613,5.998,9.39,21.341,17.026,36.428
				c0.73,1.441,1.477,2.881,2.24,4.313c10.828,20.254,25.025,38.357,41.853,30.487c3.999-1.871,11.477,0.97,11.414-4.816
				c-0.054-4.171,7.878-3.027,8.415-5.697c2.942-14.608-26.128-87.87-42.089-107.268c-10.488-12.747-20.429-6.846-29.243-18.109
				L327.707,390.171z"/>
			<g>
				<g>
					<path style="fill:#CCCCCC;" d="M352.617,531.307c0.667,8.21,1.134,16.06,1.105,23.078v0.063
						c-0.011,4.462-0.233,8.587-0.724,12.255c-8.841,2.527-103.509-0.776-104.165-0.685c-0.017-0.028-1.63-52.267-4.64-109.308
						c-2.502-47.429-5.974-98.182-10.305-125.004c5.022-2.761,11.776-5.054,18.2-6.92h0.006c3.802-1.106,7.479-2.065,10.613-2.887
						c4.845-1.262,8.396-2.191,9.081-2.824l63.375,4.039c1.044,0.581,2.753,1.768,4.907,3.366c2.958,2.202,6.755,5.192,10.78,8.456
						c7.324,5.939,12.232,17.641,17.459,22.365c3.882,3.509,9.121,46.213-14.905,88.849c-2.195,3.891-3.512,9.089-4.213,15.187
						c-0.069,0.605-0.137,1.21-0.194,1.809c-0.804,8.639-0.491,18.903,0.268,29.765c0.006,0.045,0.011,0.091,0.011,0.131
						c0.872,12.455,2.32,25.679,3.329,38.077C352.612,531.181,352.617,531.244,352.617,531.307z"/>
					<path style="fill:#FCA76D;" d="M347.173,266.619c-1.208,2.248-3.328,7.686-5.55,14.293c-0.97,2.876-1.961,5.99-2.908,9.157
						c-0.062,0.228-0.137,0.462-0.205,0.696c-2.109,7.097-3.973,14.451-4.867,20.191c-0.252,1.614-0.428,3.103-0.508,4.421
						c-0.051,0.924-0.062,1.77-0.029,2.516c0.075,1.33,0.303,2.356,0.724,2.996c14.057,21.235-13.389,35.676-31.784,31.664
						c-18.137-3.959-37.712-20.602-30.256-33.479c7.547-13.036,10.585-22.661,12.655-31.002c1.481-5.934,2.474-11.212,4.246-16.604
						v-0.005c1.026-3.109,1.95-6.196,2.76-9.209c4.782-17.624,6.054-32.555,4.07-34.072L347.173,266.619z"/>
					<path style="fill:#E86E52;" d="M341.622,280.912c-0.97,2.876-1.961,5.99-2.908,9.157c-0.062,0.228-0.137,0.462-0.205,0.696
						c-2.109,7.097-3.973,14.451-4.867,20.191c-0.252,1.614-0.428,3.103-0.508,4.421c-9.473,1.125-22.538-0.803-29.6-4.791
						c-9.907-5.591-14.057-13.305-19.09-22.513c1.481-5.934,2.474-11.212,4.246-16.604v-0.005c1.026-3.109,1.95-6.196,2.76-9.209
						L341.622,280.912z"/>
					<g>
						<g>
							<path style="fill:#FCA76D;" d="M353.272,234.961c1.376-6.93,5.788-9.567,9.237-6.776c4.348,3.525,3.303,12.409,2.057,17.955
								c-1.173,5.223-4.206,12.253-7.65,16.057C347.471,272.631,353.272,234.961,353.272,234.961z"/>
							<path style="fill:#E86E52;" d="M354.073,240.189c1.788-10.963,5.082-13.921,8.921-6.903
								c2.665,4.868-0.309,11.368-1.734,15.973c1.004-3.962-0.59-14.946-3.694-8.894c-2.652,5.161-3.413,14.481-4.477,14.467
								C353.09,254.833,353.207,245.503,354.073,240.189z"/>
						</g>
						<path style="fill:#FCA76D;" d="M300.872,302.28c-23.631-16.989-22.234-44.236-20.917-62.265
							c0.608-8.253,1.788-16.615,3.473-24.488c1.358-6.333,3.046-12.348,5.02-17.752c1.732-4.724,3.684-8.975,5.84-12.556
							c3.034-5.026,6.462-8.724,10.214-10.528c0,0,13.772-0.416,20.385,0.423c9.97,1.267,15.983,2.76,21.541,10.754
							c0.839,1.214,1.747,3.625,2.696,6.908c3.327,11.554,7.119,33.855,9.599,52.108C372.123,343.482,312.91,310.934,300.872,302.28
							z"/>
						<path style="fill:#E86E52;" d="M341.356,264.78c-2.124-16.295-5.477-24.811-4.824-33.246c0,0,7.559,30.199,8.214,35.308
							c-5.682,2.672-10.885,5.115-16.063,0.99C333.774,268.231,338.034,268.49,341.356,264.78z"/>
						<path style="fill:#AD3C23;" d="M345.927,211.471c5.979-0.286,11.787,1.916,15.637,3.266l-4.016,7.151
							c-4.004-1.784-13.448-0.686-19.73-0.921C337.578,216.747,338.041,211.849,345.927,211.471z"/>
						<g>
							<g>
								<path style="fill:#20344C;" d="M302.068,236.463c0.156,5.067,2.819,9.102,5.947,9.006c1.303-0.037,2.49-0.791,3.413-2.034
									c1.287-1.722,2.062-4.361,1.974-7.312c-0.157-5.067-2.818-9.106-5.949-9.015c-0.227,0.007-0.457,0.035-0.678,0.086
									C303.986,227.83,301.926,231.769,302.068,236.463z"/>
								<path style="fill:#06090C;" d="M304.804,234.513c0.157,5.069,2.814,9.102,5.945,9.007c0.233-0.007,0.462-0.034,0.678-0.085
									c1.287-1.722,2.062-4.361,1.974-7.312c-0.157-5.067-2.818-9.106-5.949-9.015c-0.227,0.007-0.457,0.035-0.678,0.086
									C305.488,228.917,304.714,231.563,304.804,234.513z"/>
								<path style="fill:#FFFFFF;" d="M303.807,236.407c0.025,0.906,0.673,1.622,1.439,1.598c0.767-0.022,1.367-0.775,1.341-1.68
									c-0.029-0.905-0.672-1.62-1.44-1.597C304.379,234.751,303.78,235.504,303.807,236.407z"/>
							</g>
							<path style="fill:#E86E52;" d="M297.604,236.291c2.252-2.986,5.824-5.305,10.134-6.219c4.31-0.91,8.514-0.241,11.786,1.575
								c-2.296-5.402-7.691-8.66-13.058-7.52C301.09,225.267,297.492,230.426,297.604,236.291z"/>
						</g>
						<g>
							<g>
								<path style="fill:#20344C;" d="M342.96,234.674c0.148,5.07,2.815,9.101,5.942,9.005c1.305-0.036,2.495-0.791,3.416-2.034
									c1.284-1.719,2.058-4.359,1.969-7.311c-0.152-5.064-2.818-9.109-5.947-9.015c-0.23,0.007-0.463,0.035-0.683,0.086
									C344.874,226.042,342.811,229.979,342.96,234.674z"/>
								<path style="fill:#06090C;" d="M345.69,232.721c0.157,5.071,2.818,9.101,5.945,9.009c0.23-0.008,0.463-0.032,0.684-0.084
									c1.284-1.719,2.058-4.359,1.969-7.311c-0.152-5.064-2.818-9.109-5.947-9.015c-0.23,0.007-0.463,0.035-0.683,0.086
									C346.374,227.126,345.601,229.774,345.69,232.721z"/>
								<path style="fill:#FFFFFF;" d="M344.69,234.617c0.029,0.905,0.674,1.624,1.445,1.596c0.764-0.02,1.366-0.773,1.337-1.679
									c-0.027-0.907-0.673-1.621-1.436-1.598C345.266,232.96,344.664,233.711,344.69,234.617z"/>
							</g>
							<path style="fill:#E86E52;" d="M338.491,234.502c2.249-2.986,5.822-5.306,10.129-6.219c4.316-0.913,8.514-0.239,11.788,1.575
								c-2.293-5.402-7.689-8.658-13.054-7.52C341.975,223.478,338.384,228.637,338.491,234.502z"/>
						</g>
						<path style="fill:#AD3C23;" d="M314.318,209.244c-6.476-1.022-14.284,0.48-19.395,1.364l0.11,7.688
							c5.534-1.301,15.38,0.962,22.513,1.5C320.39,215.579,322.865,210.594,314.318,209.244z"/>
						<g>
							<path style="fill:#E86E52;" d="M352.999,270.037c-1.506,1.832-2.916,6.148-5.266,10.72c-0.21,0.409-0.424,0.814-0.646,1.222
								c-0.669,1.216-1.413,2.431-2.241,3.615c-2.048,2.912-4.654,5.615-8.117,7.496c-4.098,2.23-10.334,2.504-15.103,0.761
								c-0.547-0.197-1.068-0.424-1.561-0.67c-6.549-3.283-12.329-19.841-12.329-19.841c1.762,0.381,3.668,0.701,5.666,0.956
								C326.98,276.03,344.979,274.772,352.999,270.037z"/>
							<path style="fill:#FFFFFF;" d="M352.999,270.037c-1.64,2-1.222,3.048-3.978,8.059c-8.121,6.639-25.263,5.978-30.338,3.119
								c-3.251-1.833-3.568-3.024-5.281-6.92C326.98,276.03,344.979,274.772,352.999,270.037z"/>
						</g>
						<path style="fill:#681B11;" d="M272.083,254.682l11.466-0.126c-0.258-4.369-0.347-8.762-0.322-13.097
							c0.047-9.152,0.579-18.052,1.003-25.952l-0.803,0.02l-14.647,0.414c-0.593,4.522-0.412,11.021,0.336,18.49
							C269.743,240.694,270.772,247.64,272.083,254.682z"/>
						<g>
							<path style="fill:#FCA76D;" d="M274.742,239.851c-3.219-6.422-9.845-7.784-14.107-4.084
								c-5.379,4.671-2.251,13.104,0.528,18.204c2.615,4.801,8.151,10.859,13.654,13.637
								C289.908,275.23,274.742,239.851,274.742,239.851z"/>
							<path style="fill:#E86E52;" d="M274.617,245.208c-4.552-10.268-9.686-12.254-13.698-4.293
								c-2.781,5.517,2.574,11.072,5.424,15.199c-2.14-3.612-1.999-14.838,3.455-9.764c4.656,4.334,7.473,13.277,8.947,12.965
								C278.745,259.315,276.824,250.187,274.617,245.208z"/>
						</g>
						<path style="opacity:0.3;fill:#405C66;" d="M358.724,244.885c-20.228,7.937-44.556,7.042-64.46,0.813
							c-1.904-0.593-6.1-2.113-11.037-4.238c-1.06-0.453-2.16-0.934-3.272-1.443c-3.59-1.642-7.377-3.541-10.839-5.584
							c-0.748-7.469-0.928-13.968-0.336-18.49l14.647-0.414c1.358-6.333,3.046-12.348,5.02-17.752
							c19.688-5.078,40.495-7.23,60.677-4.999C352.452,204.331,356.201,226.638,358.724,244.885z"/>
						<g>
							<g>
								<path style="fill:#FDC33D;" d="M262.882,230.005c17.849,6.156,36.898,6.098,55.725,6.048
									c5.167-0.008,10.388-0.395,15.509-1.031c19.451-2.407,37.376-8.484,45.094-12.19c14.055-6.76,13.157-12.641-5.716-18.188
									c-1.488-0.441-2.778-1.385-3.913-2.656c-3.723-4.153-5.809-11.783-7.944-16.414c-4.751-10.265-11.298-17.725-19.22-22.578
									c-3.099-1.9-6.406-3.397-9.907-4.51c-8.307-2.642-17.657-3.09-27.698-1.5c-1.848,0.295-3.724,0.654-5.627,1.085
									c-1.635,0.375-3.292,0.798-4.955,1.269c-4.684,1.326-9.131,3.675-13.147,6.982c-0.331,0.279-0.665,0.559-0.998,0.853
									c-0.515,0.447-1.021,0.915-1.521,1.401c-1.083,1.051-2.123,2.178-3.127,3.38
									C265.248,184.157,259.484,204.029,262.882,230.005z"/>
								<path style="fill:#FCB12B;" d="M262.882,230.005c17.849,6.156,36.898,6.098,55.725,6.048
									c5.167-0.008,10.388-0.395,15.509-1.031c19.451-2.407,37.376-8.484,45.094-12.19c14.055-6.76,13.157-12.641-5.716-18.188
									c-1.488-0.441-2.778-1.385-3.913-2.656c-1.968,3.131-5.004,5.979-7.567,7.494c-0.149,0.094-0.298,0.18-0.447,0.259
									c-1.263,0.693-2.555,1.32-3.868,1.904c-6.208,2.76-12.918,4.367-19.638,5.124c-1.224,0.137-2.444,0.28-3.676,0.428
									c-1.511,0.177-3.039,0.353-4.556,0.523c-9.485,1.065-19.027,1.918-28.315,0.893c-1.59-0.167-3.176-0.397-4.749-0.691
									c-2.137-0.391-4.254-0.897-6.356-1.549c-0.217-0.071-0.447-0.144-0.662-0.218c-13.213-4.475-18.073-18.465-16.244-31.764
									c0.57-4.174,1.667-7.767,3.17-10.963c0.698-1.515,1.498-2.931,2.379-4.282c0.273-0.416,0.548-0.824,0.845-1.229
									c0.376-0.54,0.776-1.071,1.186-1.595c-0.331,0.279-0.665,0.559-0.998,0.853c-0.515,0.447-1.021,0.915-1.521,1.401
									c-1.083,1.051-2.123,2.178-3.127,3.38C265.248,184.157,259.484,204.029,262.882,230.005z"/>
								<path style="fill:#FCB12B;" d="M352.617,190.175c2.854,7.111,4.005,14.118,5.081,21.47c0.08,0.552,0.163,1.105,0.244,1.657
									c0.252,1.734,0.503,3.479,0.785,5.262l4.524-0.712c-0.275-1.759-0.525-3.492-0.772-5.208
									c-0.158-1.06-0.314-2.12-0.465-3.163c-1.065-7.092-2.287-13.917-5.14-21.022c-3.759-9.342-8.71-17.995-14.458-25.464
									c-3.099-1.9-6.406-3.397-9.907-4.51C340.681,166.989,347.7,177.938,352.617,190.175z"/>
								<path style="fill:#FCB12B;" d="M324.525,194.732c3.057,7.598,4.152,15.08,5.304,22.988l0.023,0.143
									c0.249,1.732,0.499,3.479,0.783,5.264l4.528-0.713c-0.278-1.762-0.528-3.494-0.775-5.21l-0.003-0.008
									c-1.202-8.24-2.331-16.017-5.603-24.179c-5.693-14.183-14.146-26.745-23.969-36.033c-1.848,0.295-3.724,0.654-5.627,1.085
									C309.566,167.043,318.593,179.951,324.525,194.732z"/>
								<path style="fill:#FCB12B;" d="M275.436,171.956c0.427,0.489,0.84,0.978,1.236,1.472c0.637,0.78,1.267,1.569,1.879,2.382
									c5.427,7.073,10.105,15.274,13.674,24.167c2.397,5.962,3.585,11.857,4.539,17.945c0.259,1.607,0.494,3.234,0.738,4.877
									c0.008,0.105,0.024,0.204,0.042,0.309c0.255,1.732,0.509,3.481,0.791,5.262l4.527-0.711c-0.096-0.58-0.18-1.157-0.265-1.723
									c-0.175-1.174-0.347-2.336-0.517-3.487c-0.19-1.296-0.369-2.564-0.568-3.835c-1.033-6.848-2.275-13.462-5.038-20.35
									c-4.293-10.694-10.149-20.463-16.993-28.599c-0.146-0.179-0.288-0.348-0.431-0.519c-0.163-0.19-0.325-0.38-0.488-0.57
									C277.481,169.626,276.44,170.754,275.436,171.956z"/>
							</g>
							<path style="opacity:0.8;fill:#CECECE;" d="M262.882,230.005c17.849,6.156,36.898,6.098,55.725,6.048
								c5.167-0.008,10.388-0.395,15.509-1.031c-11.258-1.193-22.278-4.059-31.518-9.087c-1.766-0.961-3.464-2.001-5.095-3.137
								c-2.841-1.949-5.443-4.16-7.756-6.643c-7.124-7.624-11.535-17.799-11.577-31.051c-0.011-3.266,0.09-6.35,0.382-9.294
								c0.206-2.116,0.504-4.153,0.931-6.145c0.122-0.585,0.26-1.173,0.414-1.748c0.06-0.25,0.119-0.5,0.188-0.742
								c-0.515,0.447-1.021,0.915-1.521,1.401c-1.083,1.051-2.123,2.178-3.127,3.38
								C265.248,184.157,259.484,204.029,262.882,230.005z"/>
						</g>
					</g>
					<polygon style="fill:#FFFFFF;" points="312.442,900.054 329.548,909.898 306.079,909.898 310.494,900.054 					"/>
					<polygon style="fill:#FFFFFF;" points="223.978,899.697 212.575,910.256 231.314,910.256 229.736,900.054 					"/>
					<path style="fill:#0C3A5E;" d="M316.689,902.495c-0.998,0.661-2.993,1.535-8.402,2.477
						c-0.742-0.959-0.627-111.482-1.055-198.597c-0.091-18.052-0.199-35.093-0.348-49.951c-0.069-6.846-0.137-13.236-0.222-19.038
						v-0.074c-0.279-18.982-0.645-31.733-1.151-34.186c-0.006-0.052-0.018-0.092-0.029-0.137c-0.018-0.085-0.04-0.166-0.062-0.24
						c-0.337-1.193-0.741-2.099-1.203-2.698c-0.068-0.097-0.148-0.183-0.228-0.263c-0.319-0.32-9.126,19.809-21.182,58.765
						c-11.845,38.288-26.836,94.783-39.98,167.914c0,0.006-0.005,0.017-0.005,0.023c-4.372,24.334-8.545,50.521-12.318,78.483
						l-8.362-3.572c7.274-88.158,11.856-179.107,17.778-250.59c1.87-22.558,3.871-43.171,6.135-61.155
						c0.169-1.386,0.347-2.75,0.524-4.102c3.454-26.353,7.507-46.653,12.598-58.542l83.284-5.199
						c5.569,9.272,8.864,24.414,10.427,43.481c0.319,3.857,0.57,7.879,0.746,12.044c0.023,0.462,0.04,0.93,0.057,1.398
						c0.029,0.611,0.052,1.226,0.068,1.849C357.24,680.758,324.549,859.34,316.689,902.495z"/>
					<path style="fill:#0C3A5E;" d="M354.02,577.143c0.005,0.502,0,1.003,0,1.506c-0.104,0.029-0.212,0.057-0.331,0.086
						c-0.849,0.194-2.182,0.371-3.933,0.53c-7.125,0.645-21.074,1.011-36.521,1.45c-3.095,0.091-6.253,0.177-9.428,0.274
						c-6.196,0.182-12.466,0.393-18.48,0.644c-17.978,0.742-33.722,1.865-38.75,3.919c-0.006-0.011,0.08-10.069,0.029-25.651
						c-0.074-26.039-0.53-67.5-2.411-103.192c4.777-0.628,31.242-13.345,30.803-79.27c1.043-0.018,2.115-0.04,3.221-0.052
						c20.851-0.302,51.369,0.052,68.516,0.309c0.319,17.185-2.366,35.207-2.366,53.202c0,8.804-1.094,18.081,2.565,25.959
						c0.815,1.757,1.567,3.207,2.257,4.478c-2.509,21.749,1.567,38.717,3.682,74.004c0.251,4.143,0.468,8.53,0.65,13.214
						c0.199,5.106,0.348,10.555,0.433,16.403C354.008,568.836,354.031,572.899,354.02,577.143z"/>
					<path style="fill:#0C3A5E;" d="M284.961,418.25l-10.79-0.975c0.587-6.476,0.542-13.025,0.018-19.523
						c-2.304-28.818-14.006-56.701-22.094-72.966c3.802-1.106,7.479-2.065,10.613-2.887c6.527,13.447,14.86,33.444,19.404,55.439
						C284.842,390.579,286.199,404.546,284.961,418.25z"/>
					<path style="fill:#0C3A5E;" d="M350.85,334.935c-0.388,11.821-1.926,27.585-4.007,48.005c-0.04,0.382-0.081,0.764-0.115,1.146
						c-0.957,9.357-1.938,19.028-2.844,29.029l-10.79-0.976c0.952-10.475,1.978-20.557,2.976-30.302
						c0.147-1.443,0.291-2.876,0.439-4.285c1.59-15.672,2.93-29.291,3.414-40.279c0.194-4.416,0.228-7.953,0.148-10.795
						C343.029,328.682,346.825,331.671,350.85,334.935z"/>
					<polygon style="fill:#081D2B;" points="293.067,390.961 333.094,390.961 330.367,396.667 293.067,396.667 					"/>
					<g>
						<path style="fill:#081D2B;" d="M337.828,570.946c-2.478,5.032-17.678,20.449-19.042,26.491
							c-0.598,2.601-5.884,63.406-11.556,108.938c-0.127-26.368-0.303-50.594-0.568-68.988v-0.076
							c0.107-17.174-0.215-30.427-1.148-34.183c-0.006-0.052-0.019-0.095-0.033-0.14c-0.017-0.082-0.037-0.165-0.063-0.24
							c-0.239-1.117-0.63-2.021-1.198-2.696c-0.069-0.095-0.151-0.183-0.233-0.266c-0.631-0.638-34.646,79.154-61.16,226.678
							c12.806-77.917,38.469-218.647,43.301-228.421c-3.893-3.744-9.393-4.178-13.249-6.623
							C283.055,590.971,331.525,576.956,337.828,570.946z"/>
					</g>
				</g>
				<g>
					<g>
						<path style="fill:#081D2B;" d="M278.497,372.91c-0.011,0.148-0.018,0.294-0.029,0.442
							C278.981,372.393,279.952,371.262,278.497,372.91z"/>
						<path style="fill:#081D2B;" d="M303.806,580.989c-6.196,0.182-12.466,0.393-18.48,0.644
							c-17.978,0.742-35.539,16.766-40.566,18.821c-0.006-0.012,1.897-24.971,1.845-40.552c-0.074-26.039-0.53-67.5-2.411-103.192
							c4.777-0.628,31.242-13.345,30.803-79.27c1.043-0.018,2.115-0.04,3.221-0.052c-0.93,17.208-0.108,33.884-2,51.229
							c-2.001,18.37-10.768,31.258-15.955,48.181c-5.364,17.493-0.427,76.081,0.855,85.323c1.79,12.883,5.09,10.167,16.018,11.382
							C283.611,574.228,297.097,576.43,303.806,580.989z"/>
					</g>
				</g>
				<g>
					<path style="fill:#FDC33D;" d="M354.02,577.143c0.005,0.502,0,1.003,0,1.506c-0.104,0.029-0.212,0.057-0.331,0.086
						c0.029,0.611,0.052,1.226,0.068,1.849c-12.723,7.554-29.327,14.303-40.021,16.602l-0.044,0.599
						c-0.264,3.566-0.331,7.891-0.298,12.598c0.108,14.942,1.174,33.798-0.2,45.026c-2.103,0.348-4.206,0.697-6.31,1.015
						c-0.473,0.074-0.94,0.143-1.413,0.212c-7.228,1.072-15.129,2.139-22.664,1.917c-2.986-0.086-5.911-0.376-8.715-0.947
						c2.285-12.757,2.075-27.163,4.52-39.715c-4.03,0.496-8.475,0.496-12.603,1.689c-1.043,10.731-6.515,23.962-10.557,34.003
						c-0.142,0.011-0.302,0.022-0.451,0.029c-5.055-0.776-10.072-1.751-15.083-2.802c-9.325-1.957-18.61-4.164-27.998-5.796
						c6.914-13.067,28.13-54.182,28.13-54.182s1.887-0.37,2.776-0.541c1.887-0.365-1.881,0.374,3.227-0.637
						c0.199-0.04,0.398-0.08,0.604-0.12c9.508-1.888,23.525-4.695,38.67-7.901c24.271-5.146,51.439-11.308,67.559-16.34
						c0.364-0.114,0.723-0.228,1.07-0.337C354.008,568.836,354.031,572.899,354.02,577.143z"/>
					<path style="fill:#FCB12B;" d="M313.394,610.383c0.108,14.942,1.174,33.798-0.2,45.026c-2.571,0.428-5.147,0.85-7.723,1.227
						c-10.095,1.5-21.495,2.978-31.379,0.97c2.285-12.757,2.075-27.163,4.52-39.715c-4.03,0.496-8.475,0.496-12.603,1.689
						c-1.043,10.731-6.515,23.962-10.557,34.003c-0.142,0.011-0.302,0.022-0.451,0.029c-14.467-2.219-28.654-6.088-43.081-8.597
						c6.914-13.067,28.13-54.182,28.13-54.182s-0.89,0.171,0,0l-14.815,47.169l26.86,6.277l12.472-32.52l18.264-1.866l2.593,40.337
						h24.174l4.094-52.444C313.428,601.351,313.361,605.675,313.394,610.383z"/>
					<path style="fill:#FCB12B;" d="M354.02,578.65c-0.104,0.029-0.212,0.057-0.331,0.086c0.029,0.611,0.052,1.226,0.068,1.849
						c-12.723,7.554-29.327,14.303-40.021,16.602l36.02-17.921l3.876-1.928l0.388-0.194
						C354.025,577.646,354.02,578.147,354.02,578.65z"/>
					<g>
						<polygon style="fill:#2B3030;" points="238.061,616.892 242.827,594.642 248.321,594.642 242.827,618.633 						"/>
						<polygon style="fill:#2B3030;" points="246.041,627.164 250.807,604.914 256.301,604.914 250.807,628.904 						"/>
					</g>
					<g>
						<polygon style="fill:#2B3030;" points="292.304,611.584 291.247,589.093 295.131,588.304 296.019,612.604 						"/>
						<polygon style="fill:#2B3030;" points="299.989,620.503 298.932,598.012 302.815,597.222 303.703,621.524 						"/>
					</g>
					<polygon style="fill:#FCB12B;" points="222.141,639.714 233.889,611.758 257.96,614.169 252.095,648.272 					"/>
					<polygon style="fill:#FCB12B;" points="279.339,653.977 288.081,608.799 308.877,604.914 309.598,650.229 					"/>
				</g>
			</g>
			<path style="fill:#FCA76D;" d="M279.534,433.402c-3.581,0-16.282-0.945-22.539,2.14c-5.428,2.676-13.48,9.634-16.294,14.86
				c7.517-0.294,15.134-1.604,22.922-1.596c5.469,0.005,18.064-2.855,21.215-1.711L279.534,433.402z"/>
			<path style="fill:#CCCCCC;" d="M351.711,457.52c-44.826,20.556-100.893,47.383-146.174,35.806
				c-1.853-0.478-3.677-1.021-5.479-1.62c-0.034-0.011-0.079-0.023-0.114-0.045c-0.178-0.074-0.359-0.148-0.536-0.234
				c-0.023-0.005-0.04-0.011-0.046-0.023c-5.393-2.978-7.832-7.771-8.168-13.071c-0.051-0.804-0.051-1.615-0.005-2.436
				c0.564-10.881,9.04-23.051,18.565-26.194c5.934-1.957,12.192-2.534,18.542-2.567c1.215-0.006,2.446,0.005,3.671,0.028
				c1.089,0.023,2.183,0.057,3.277,0.104c1.107,0.039,2.201,0.09,3.301,0.142c0.473,0.023,0.946,0.039,1.419,0.062
				c5.393,0.257,10.751,0.531,15.938,0.314c5.529-0.234,19.152-0.679,34.373-1.346c0.324-0.017,0.66-0.023,0.986-0.04
				c4.942-0.217,10.038-0.456,15.077-0.719c0.809-0.046,1.613-0.086,2.417-0.131c18.941-1.027,33.043-5.277,37.273-7
				C350.211,444.934,352.731,453.167,351.711,457.52z"/>
			<path style="fill:#CCCCCC;" d="M251.456,399.874c-0.462,0.527-0.963,1.452-1.505,2.725c-2.992,7.084-7.199,24.811-13.282,42.465
				c-0.58,1.687-1.179,3.372-1.795,5.053c-8.738,23.765-21.045,45.514-38.579,38.646c-4.167-1.633-5.655-7.966-6.174-14.415
				c-0.365-4.649-0.233-9.363-0.228-12.412c0.165-99.164,32.247-121.181,43.995-130.231L251.456,399.874z"/>
			<g>
				<g>
					<path style="fill:#B0B4B7;" d="M212.53,466.755c0.016-0.023,0.034-0.05,0.05-0.074c-0.022,0.019-0.045,0.038-0.068,0.059
						C212.314,466.965,212.319,466.97,212.53,466.755z"/>
					<path style="fill:#B0B4B7;" d="M325.365,445.681c-27.657-1.136-53.819,6.266-77.044,9.431l-21.945,14.012
						c0.947-4.325,2.201-9.979,6.801-11.85c-7.547,0.697-14.747,4.302-20.596,9.409c1.409-2.157,3.546-4.588,5.399-6.573
						c6.378-6.812,13.19-10.555,20.566-12.7c0.473,0.023,0.946,0.039,1.419,0.062c5.393,0.257,10.751,0.531,15.938,0.314
						c5.529-0.234,35.033-1.369,35.358-1.386C296.203,446.183,320.924,445.037,325.365,445.681z"/>
				</g>
			</g>
			<path style="fill:#B0B4B7;" d="M361.612,413.212c-3.739-8.764-4.703-18.789-4.703-28.527l-0.569,2.282
				c-1.125,18.391,3.1,36.209,11.528,52.419c2.426-0.827,5.322-0.349,7.81-1.198C368.47,433.23,364.997,421.143,361.612,413.212z"/>
			<path style="fill:#CCCCCC;" d="M276.282,449.172c38.381,16.463,86.454,38.167,123.278,22.605c1.502-0.635,2.985-1.333,4.44-2.092
				c0.029-0.018,0.062-0.035,0.091-0.058c0.142-0.089,0.289-0.181,0.433-0.282c0.016-0.006,0.028-0.01,0.033-0.023
				c4.938-3.973,6.487-9.975,5.841-16.164c-1.12-10.778-8.878-22.135-16.963-24.412c-5.036-1.42-10.255-1.435-15.513-0.907
				c-3.214,0.32-6.438,0.844-9.65,1.375c-4.457,0.74-8.881,1.488-13.194,1.733c-4.59,0.261-15.904,1.031-28.559,1.725
				c-5.019,0.276-10.249,0.539-15.362,0.757c-15.757,0.664-27.697-2.308-31.307-3.648
				C276.766,436.511,275.174,444.93,276.282,449.172z"/>
		</g>
		<g>
			<g>
				<g>
					<path style="fill:#2B3030;" d="M546.932,325.181l-8.538,104.262c-3.833,13.719-21.272,77.561-30.946,89.546
						c-9.81,12.152-29.671,8.945-39.299-9.015C455.392,486.176,504.433,311.346,546.932,325.181z"/>
					<g>
						<polygon style="fill:#FFFFFF;" points="593.233,897.471 576.841,906.905 599.33,906.905 595.099,897.471 						"/>
						<polygon style="fill:#FFFFFF;" points="695.897,896.786 706.824,906.905 692.169,906.905 692.208,896.786 						"/>
						<path style="fill:#1F2323;" d="M698.613,899.303c-1.648,0.64-4.141,0.124-6.421,1.526
							c-1.161-11.264-6.586-36.509-14.594-63.242v-0.008c-2.699-8.998-5.687-18.562-8.906-28.492v-0.009
							c-24.677-76.051-62.903-173.419-86.4-199.337c-0.077,0.077-0.153,0.162-0.222,0.256c-0.444,0.571-0.828,1.436-1.153,2.58
							c-2.655,9.374-1.503,37.305,1.383,72.233c0,0.016,0,0.033,0.009,0.051c3.099,37.439,8.187,82.923,12.723,122.191
							c0.024,0.206,0.051,0.411,0.067,0.616c5.67,49.072,2.821,91.667,1.668,93.162c-5.181-0.906-6.364-0.624-7.321-1.257
							c-9.512-52.198-76.247-310.915-44.023-364.551l95.16,5.94C659.334,584.793,707.058,784.699,698.613,899.303z"/>
						<g>
							<path style="fill:#0B1111;" d="M595.033,807.051c0.024,0.206,0.051,0.411,0.067,0.616c-0.273,0.445-0.554,0.914-0.836,1.41
								C594.561,808.539,594.818,807.865,595.033,807.051z"/>
							<path style="fill:#0B1111;" d="M582.3,684.809c-6.703-39.688-13.472-74.189-14.19-77.318
								c-1.306-5.794-13.619-34.774-15.993-39.594c6.036,5.76,27.091,24.512,29.9,26.297c8.658,5.53,20.331,7.102,30.082,7.529
								c-3.69,2.342-8.966,2.761-12.696,6.35c4.636,9.367,57.019,126.346,69.289,201.004
								c-24.677-76.051-62.903-173.419-86.4-199.337c-0.077,0.077-0.153,0.162-0.222,0.256c-0.547,0.649-0.923,1.512-1.153,2.58
								C578.262,621.951,579.415,649.882,582.3,684.809z"/>
						</g>
					</g>
					<g>
						<path style="fill:#EFF9F8;" d="M647.44,563.881c-0.682-0.086-27.8,1.085-56.721,0.453c-2.305-0.042-4.627-0.102-6.941-0.18
							c-4.636-0.153-9.255-0.35-13.78-0.614c-14.507-0.846-27.931-2.359-36.964-4.94c1.946-4.813,29.44-102.545,7.531-117.227
							c-7.018-4.701-8.419-26.758-11.879-40.491c-7.368-29.237-10.585-51.679-6.615-55.268c10.408-9.401,19.39-15.239,27.562-19.861
							c5.806-3.282,11.202-5.94,16.418-8.837l59.683-9.076c1.914,1.779,4.288,3.034,6.995,3.992
							c9.853,3.487,24.147,3.077,36.996,10.144C711.333,344.862,647.56,563.693,647.44,563.881z"/>
						<path style="fill:#FCA76D;" d="M560.569,313.347c-12.23,18.471-6.412,32.35,7.492,39.122
							c21.837,10.639,76.075-36.841,76.423-37.918c-35.803-12.194-49.544-92.298-44.758-95.947l-52.794,39.285
							C550.968,265.364,564.692,307.116,560.569,313.347z"/>
						<g>
							<g>
								<path style="fill:#FCA76D;" d="M527.361,224.266c-3.053-6.795-8.21-8.46-11.094-4.774
									c-3.634,4.652-0.458,13.535,2.133,18.94c2.441,5.088,7.22,11.593,11.659,14.684
									C542.234,261.603,527.361,224.266,527.361,224.266z"/>
								<path style="fill:#E86E52;" d="M527.774,229.829c-4.431-10.842-8.515-13.101-10.8-4.979
									c-1.588,5.631,3.006,11.606,5.561,16.003c-1.968-3.834-2.929-15.499,1.691-10.016c3.946,4.676,6.935,14.074,8.023,13.806
									C532.25,244.644,529.922,235.085,527.774,229.829z"/>
							</g>
							<path style="fill:#FCA76D;" d="M603.629,273.277c-1.077,0.901-2.158,1.779-3.259,2.626
								c-12.35,9.573-26.223,15.762-42.556,16.924c-1.342,0.109-2.702,0.169-4.069,0.2c-26.103,0.514-24.265-13.802-27.075-33.617
								c-0.563-3.969-1.203-9.511-1.838-15.912c-0.26-2.621-0.519-5.385-0.773-8.241c-0.925-10.473-1.759-22.199-2.218-32.739
								c-0.629-14.393-0.556-26.574,0.943-30.319c3.814-9.535,9.642-12.488,19.591-16.16c6.602-2.426,20.844-5.265,20.844-5.265
								c4.285,0.963,8.68,3.952,12.984,8.399c4.437,4.592,8.778,10.739,12.798,17.824c1.928,3.389,3.778,6.995,5.531,10.753
								c2.243,4.785,4.322,9.807,6.19,14.926c1.814,4.955,3.434,10.007,4.813,15.017
								C612.182,241.876,613.241,265.194,603.629,273.277z"/>
							<path style="fill:#E86E52;" d="M546.661,252.085c-1.671-17.25-0.242-26.796-2.907-35.309c0,0-0.625,32.824-0.089,38.23
								c6.471,1.401,12.397,2.676,16.741-2.789C555.269,253.834,550.949,255.11,546.661,252.085z"/>
							<path style="fill:#AD3C23;" d="M529.352,198.386c-6.211,1.124-11.658,4.762-15.297,7.062l5.82,6.398
								c3.691-2.782,13.655-3.892,20.056-5.622C539.18,201.831,537.546,196.906,529.352,198.386z"/>
							<g>
								<g>
									<path style="fill:#20344C;" d="M580.335,213.677c1.04,5.243-0.744,10.019-3.98,10.662c-1.349,0.269-2.748-0.224-3.99-1.282
										c-1.731-1.464-3.152-3.992-3.758-7.045c-1.036-5.246,0.741-10.026,3.981-10.674c0.237-0.047,0.478-0.073,0.716-0.072
										C576.321,205.259,579.37,208.818,580.335,213.677z"/>
									<path style="fill:#06090C;" d="M577.062,212.32c1.039,5.246-0.738,10.019-3.979,10.664
										c-0.24,0.048-0.481,0.075-0.716,0.073c-1.731-1.464-3.152-3.992-3.758-7.045c-1.036-5.246,0.741-10.026,3.981-10.674
										c0.237-0.047,0.478-0.073,0.716-0.072C575.037,206.73,576.456,209.267,577.062,212.32z"/>
									<path style="fill:#FFFFFF;" d="M578.534,214.03c0.189,0.936-0.307,1.825-1.101,1.983c-0.792,0.159-1.588-0.473-1.776-1.409
										c-0.183-0.938,0.308-1.826,1.103-1.981C577.555,212.462,578.35,213.094,578.534,214.03z"/>
								</g>
								<path style="fill:#E86E52;" d="M584.881,212.439c-3.019-2.533-7.239-4.071-11.885-3.988
									c-4.644,0.086-8.803,1.768-11.738,4.411c1.081-6.094,5.854-10.721,11.639-10.821
									C578.691,201.937,583.608,206.387,584.881,212.439z"/>
							</g>
							<g>
								<g>
									<path style="fill:#20344C;" d="M537.891,221.528c1.046,5.244-0.741,10.02-3.976,10.661c-1.351,0.272-2.752-0.22-3.993-1.28
										c-1.725-1.464-3.146-3.992-3.752-7.046c-1.041-5.241,0.741-10.031,3.978-10.673c0.238-0.048,0.484-0.076,0.722-0.074
										C533.881,213.11,536.932,216.667,537.891,221.528z"/>
									<path style="fill:#06090C;" d="M534.623,220.167c1.038,5.247-0.744,10.02-3.977,10.667
										c-0.24,0.047-0.484,0.076-0.723,0.075c-1.725-1.464-3.146-3.992-3.752-7.046c-1.041-5.241,0.741-10.031,3.978-10.673
										c0.238-0.048,0.484-0.076,0.722-0.074C532.595,214.581,534.017,217.118,534.623,220.167z"/>
									<path style="fill:#FFFFFF;" d="M536.098,221.88c0.185,0.937-0.308,1.827-1.106,1.983c-0.791,0.159-1.589-0.472-1.773-1.41
										c-0.186-0.937,0.308-1.825,1.1-1.981C535.115,220.313,535.911,220.941,536.098,221.88z"/>
								</g>
								<path style="fill:#E86E52;" d="M542.441,220.291c-3.016-2.536-7.238-4.072-11.879-3.99
									c-4.651,0.084-8.807,1.771-11.741,4.41c1.078-6.093,5.854-10.718,11.636-10.82
									C536.252,209.789,541.165,214.238,542.441,220.291z"/>
							</g>
							<path style="fill:#AD3C23;" d="M561.307,188.608c6.413-2.586,14.792-2.894,20.254-3.197l1.705,7.928
								c-5.996-0.026-15.576,4.635-22.78,6.876C556.568,196.556,552.844,192.022,561.307,188.608z"/>
							<path style="fill:#912B1A;" d="M530.389,287.472c8.007,19.072,34.383,18.721,45.564,16.467
								c1.518-0.306,2.755-0.647,3.629-0.983c6.667-2.54,21.737-6.427,30.627-21.706c7.98-13.701,1.158-58.625-0.595-64.973
								l-14.601-22.331l-2.361-3.615c-0.462,0.083-0.779-0.486-0.797,0.079c7.029,11.729,19.851,102.334-26.243,87.838
								c-2.112,0.031-3.923-0.316-6.005,0.323c2.175,6.896-6.968,7.904-12.129,5.323c-14.688-7.336-19.13-19.904-22.808-41.323
								c-0.769,6.294-0.649,19.26,0.345,25.517C526.086,274.8,527.823,281.361,530.389,287.472z"/>
							<g>
								<path style="fill:#E86E52;" d="M540.035,264.66c1.658,1.117,3.688,4.156,6.591,7.209c0.257,0.273,0.521,0.542,0.789,0.814
									c0.81,0.803,1.686,1.594,2.628,2.341c2.331,1.838,5.109,3.41,8.485,4.187c3.994,0.919,9.494-0.072,13.34-2.33
									c0.439-0.256,0.853-0.53,1.24-0.814c5.113-3.781,7.097-17.6,7.097-17.6c-1.471,0.632-3.077,1.245-4.775,1.826
									C563.887,264.242,547.921,266.746,540.035,264.66z"/>
								<path style="fill:#FFFFFF;" d="M540.035,264.66c1.805,1.219,1.634,2.103,4.971,5.417c8.33,3.526,23.187-0.285,27.091-3.458
									c2.503-2.035,2.559-3.009,3.335-6.327C563.887,264.242,547.921,266.746,540.035,264.66z"/>
							</g>
							<path style="fill:#912B1A;" d="M529.501,267.572c1.84-2.064,15.131-9.804,18.873-10.076
								c6.388-0.466,32.819-6.031,37.923-3.421c2.805,1.431,15.164,8.643,15.566,8.14l-3.495,6.935
								c-11.699-8.834-13.432-11.15-38.237-7.547c-24.17,3.516-22.757,12.136-31.444,14.703
								C529.73,274.592,528.125,269.122,529.501,267.572z"/>
							<path style="fill:#681B11;" d="M575.953,303.939c1.518-0.306,2.755-0.647,3.629-0.983c6.667-2.54,21.737-6.427,30.627-21.706
								c7.98-13.701,6.888-76.648-0.52-96.55l-15.98,3.212c7.374,25.635,18.292,61.533,7.07,87.099
								c-3.886,8.849-9.597,15.876-16.865,22.413C581.392,299.685,578.708,301.872,575.953,303.939z"/>
							<path style="opacity:0.8;fill:#CECECE;" d="M613.241,200.296c-0.575,4.676-2.388,9.348-5.114,13.704
								c-0.793,1.259-1.656,2.494-2.593,3.691c-0.968,1.241-2.008,2.445-3.12,3.606c-1.179,1.241-2.437,2.427-3.754,3.552
								c-3.271,2.795-6.946,5.216-10.858,7.116c-19.852,9.639-38.875,10.552-59.864,4.538c-1.107-0.316-2.424-0.733-3.881-1.247
								c-0.925-10.473-1.759-22.199-2.218-32.739L589,176.995l8.777-3.334C610.254,180.675,614.449,190.495,613.241,200.296z"/>
							<g>
								<path style="fill:#FCA76D;" d="M605.441,208.967c-0.386-7.568,4.986-12.267,10.819-11.089
									c7.361,1.485,8.873,10.85,8.974,16.975c0.093,5.766-1.84,14.206-5.442,19.617
									C609.906,249.317,605.441,208.967,605.441,208.967z"/>
								<path style="fill:#E86E52;" d="M608.338,213.817c-1.159-11.79,2.52-16.285,10.336-11.069
									c5.419,3.614,3.391,11.498,2.921,16.769c0.086-4.428-5.876-14.655-8.243-7.16c-2.019,6.4,0.042,16.068-1.473,16.55
									C611.879,228.907,608.9,219.531,608.338,213.817z"/>
							</g>
							<g>
								<g>
									<path style="fill:#0C7EC4;" d="M617.469,190.948c-15.393,10.987-33.703,16.35-51.795,21.653
										c-4.964,1.46-10.088,2.576-15.187,3.421c-19.359,3.219-38.298,2.48-46.763,1.115c-15.415-2.493-16.222-8.397,0.329-19.091
										c1.303-0.846,2.275-2.118,3.003-3.663c2.396-5.045,2.234-12.966,2.969-18.022c1.65-11.209,5.819-20.231,12.049-27.146
										c2.438-2.705,5.188-5.083,8.234-7.148c7.226-4.898,16.077-7.986,26.171-9.315c1.859-0.244,3.761-0.432,5.713-0.558
										c1.674-0.105,3.386-0.17,5.118-0.191c4.874-0.058,9.811,0.932,14.605,2.966c0.398,0.173,0.797,0.348,1.201,0.536
										c0.622,0.283,1.24,0.59,1.859,0.912c1.338,0.7,2.656,1.489,3.962,2.357C602.183,147.593,613.359,165.038,617.469,190.948z"
										/>
									<path style="fill:#0E9AE0;" d="M617.469,190.948c-15.393,10.987-33.703,16.35-51.795,21.653
										c-4.964,1.46-10.088,2.576-15.187,3.421c-19.359,3.219-38.298,2.48-46.763,1.115c-15.415-2.493-16.222-8.397,0.329-19.091
										c1.303-0.846,2.275-2.118,3.003-3.663c2.779,2.447,6.503,4.317,9.394,5.044c0.169,0.048,0.336,0.088,0.502,0.121
										c1.412,0.306,2.829,0.542,4.256,0.729c6.745,0.885,13.645,0.52,20.312-0.662c1.214-0.216,2.427-0.426,3.651-0.636
										c1.501-0.26,3.017-0.524,4.523-0.793c9.41-1.672,18.817-3.568,27.445-7.193c1.48-0.612,2.936-1.285,4.365-2.014
										c1.939-0.983,3.828-2.071,5.662-3.295c0.19-0.132,0.389-0.265,0.574-0.397c11.418-8.056,12.114-22.871,6.583-35.122
										c-1.733-3.847-3.805-6.984-6.154-9.626c-1.101-1.257-2.272-2.387-3.5-3.436c-0.381-0.322-0.759-0.636-1.16-0.939
										c-0.515-0.413-1.05-0.807-1.593-1.195c0.398,0.173,0.797,0.348,1.201,0.536c0.622,0.283,1.24,0.59,1.859,0.912
										c1.338,0.7,2.656,1.489,3.962,2.357C602.183,147.593,613.359,165.038,617.469,190.948z"/>
									<path style="fill:#0E9AE0;" d="M519.994,178.215c-0.723,7.64,0.161,14.697,1.215,22.062
										c0.078,0.554,0.157,1.108,0.236,1.661c0.252,1.736,0.505,3.485,0.741,5.279l-4.549,0.602
										c-0.233-1.768-0.485-3.503-0.735-5.223c-0.151-1.061-0.302-2.123-0.451-3.168c-0.991-7.113-1.753-14.015-1.032-21.648
										c0.959-10.041,3.258-19.758,6.656-28.565c2.438-2.705,5.188-5.083,8.234-7.148
										C524.873,152.555,521.242,165.065,519.994,178.215z"/>
									<path style="fill:#0E9AE0;" d="M548.264,174.604c-0.778,8.165,0.292,15.661,1.431,23.582l0.02,0.145
										c0.252,1.736,0.506,3.485,0.741,5.277l-4.55,0.603c-0.234-1.769-0.485-3.502-0.735-5.222v-0.008
										c-1.184-8.254-2.306-16.044-1.481-24.81c1.443-15.242,5.995-29.706,12.79-41.418c1.859-0.244,3.761-0.432,5.713-0.558
										C554.768,143.76,549.764,158.722,548.264,174.604z"/>
									<path style="fill:#0E9AE0;" d="M588.938,138.774c-0.271,0.591-0.529,1.179-0.769,1.765
										c-0.391,0.93-0.773,1.867-1.128,2.821c-3.203,8.336-5.368,17.542-6.271,27.096c-0.61,6.406-0.078,12.406,0.735,18.523
										c0.205,1.616,0.442,3.246,0.675,4.891c0.021,0.104,0.033,0.203,0.045,0.309c0.246,1.736,0.5,3.488,0.734,5.279l-4.55,0.604
										c-0.073-0.585-0.155-1.162-0.234-1.73c-0.165-1.176-0.33-2.342-0.493-3.496c-0.187-1.297-0.373-2.568-0.543-3.844
										c-0.952-6.87-1.636-13.574-0.937-20.973c1.087-11.491,3.937-22.537,8.2-32.294c0.088-0.214,0.178-0.418,0.267-0.622
										c0.102-0.229,0.204-0.458,0.307-0.687C586.314,137.116,587.632,137.906,588.938,138.774z"/>
								</g>
								<path style="opacity:0.8;fill:#CECECE;" d="M617.469,190.948c-15.393,10.987-33.703,16.35-51.795,21.653
									c-4.964,1.46-10.088,2.576-15.187,3.421c10.473-4.347,20.243-10.232,27.688-17.689c1.423-1.425,2.76-2.907,4.004-4.462
									c2.172-2.678,4.044-5.541,5.561-8.583c4.676-9.349,6.024-20.372,2.303-33.109c-0.915-3.141-1.889-6.073-3.003-8.818
									c-0.799-1.974-1.663-3.846-2.638-5.635c-0.283-0.529-0.582-1.054-0.893-1.561c-0.127-0.223-0.257-0.446-0.392-0.66
									c0.622,0.283,1.24,0.59,1.859,0.912c1.338,0.7,2.656,1.489,3.962,2.357C602.183,147.593,613.359,165.038,617.469,190.948z"
									/>
							</g>
						</g>
						<g>
							<g>
								<path style="fill:#2B3030;" d="M580.545,324.536l-5.692,2.848c1.655,5.731-6.294,14.241-5.816,20.513
									c0.23,3.02,2.77,4.843,5.106,7.562c3.764,4.38,3.328,3.882,8.681,3.264c5.266-0.608,6.248,0.332,7.97-4.561
									c1.553-4.417,0.949-10.643,1.135-15.384C592.24,330.844,590.457,323.297,580.545,324.536z"/>
								<polygon style="fill:#2B3030;" points="577.601,349.604 570.307,519.388 583.198,526.794 595.709,517.678 582.722,349.604 
																	"/>
							</g>
							<path style="fill:#FFFFFF;" d="M620.446,291.647c-2.34,7.312-11.895,17.491-17.975,22.063
								c-6.609,4.971-14.747,8.362-22.128,11.523c4.871,4.378,5.678,14.913,6.884,20.954c1.517,7.605,0.273,15.666,0.56,23.302
								c23.231-11.992,48.976-30.762,62.182-53.954L620.446,291.647z"/>
							<path style="fill:#FFFFFF;" d="M560.62,310.293c0,0,13.745,11.78,21.126,14.941c-4.87,4.378-5.679,14.913-6.884,20.954
								c-1.518,7.605-0.273,15.666-0.56,23.302c-23.231-11.992-23.149-19.098-30.188-40.395L560.62,310.293z"/>
						</g>
						<path style="fill:#2B3030;" d="M656.352,583.145c-7.398,0.066-39.491-8.08-68.411-8.713
							c4.202-35.124,41.399-243.152,44.789-262.601c9.853,3.487,24.147,3.077,36.996,10.144
							C711.333,344.862,656.472,582.955,656.352,583.145z"/>
						<path style="fill:#2B3030;" d="M530.229,571.293c1.945-4.812,11.46-106.032-6.911-168.13
							c-8.554-28.912-6.483-57.81-2.514-61.401c10.409-9.4,22.179-16.064,30.35-20.688c4.996,25.852,16.95,219.675,19.154,250.219
							C555.8,570.447,539.26,573.873,530.229,571.293z"/>
						<polygon style="fill:#3D4444;" points="627.939,297.709 656.352,316.916 632.99,331.628 644.484,349.604 592.47,549.014 
													"/>
						<polygon style="fill:#3D4444;" points="555.727,315.957 527.314,335.163 550.676,349.875 539.182,367.851 569.016,545.026 
													"/>
					</g>
				</g>
				<path style="fill:#2B3030;" d="M735.888,503.63c-3.073,5.735-7.198,9.974-11.698,12.673c-0.008,0.01-0.025,0.018-0.043,0.027
					c-0.17,0.102-0.349,0.204-0.52,0.299c-0.034,0.025-0.077,0.043-0.111,0.061c0,0,0,0-0.002,0
					c-1.775,1.002-3.605,1.772-5.446,2.299c-7.965,2.307-16.188,0.221-21.482-6.341c-3.04-3.768-6.838-12.648-10.758-23.493
					c-1.247-3.469-2.502-7.135-3.757-10.897c-7.282-21.922-14.182-47.132-16.428-55.157l-1.647-20.099l-6.891-84.163
					C699.61,305.002,748.645,479.838,735.888,503.63z"/>
				<g>
					<path style="fill:#FCA76D;" d="M553.787,431.682c-1.187-0.043,0.128-4.188,3.876-5.737c2.88-3.134,33.48,1.651,39.029,3.948
						l3.659,10.82c-6.339-0.592-9.37-0.128-14.997,2.782c-2.239,1.159-17.409,8.458-18.495,7.967
						c-3.909-1.773,4.508-6.762,4.619-8.361c0.213-3.132-2.009-3.119-4.035-3.127c-5.577-0.021-32.333-1.657-32.514-3.091
						C536.221,433.001,552.115,431.88,553.787,431.682z"/>
					<g>
						<path style="fill:#EAE7CA;" d="M644.484,496.028c-35.693-1.873-76.376-2.361-111.43,2.968
							c-22.764,3.462-47.298,6.569-68.161,12.535l142.157,29.482C631.998,539.583,645.431,517.613,644.484,496.028z"/>
						<path style="fill:#F2F2F2;" d="M491.462,294.092c-7.245-3.899-185.283,55.513-185.283,55.513s14.065,47.069,36.004,114.746
							c22.911,70.67,57.048,89.748,57.048,89.748c34.388,9.864,218.922,7.876,232.292-27.748
							C483.147,517.893,491.898,314.353,491.462,294.092z"/>
						<path style="fill:#FCA76D;" d="M580.235,506.302l6.89-10.256c-12.207-8.449-13.24-10.31-18.146-14.137
							c-4.615-3.597-25.033-2.03-30.789-3.028c15.873,16.237-10.172,9.365-14.021,15.151c3.632,2.648,12.38,7.444,16.035,7.754
							c-0.127,0.4-7.45-2.303-7.617-1.516C541.966,508.473,565.517,505.618,580.235,506.302z"/>
						<path style="fill:#FCA76D;" d="M348.815,459.564c-1.223-0.291-2.96,4.593-4.183,4.281c2.123-4.789,4.323-14.312,2.183-16.277
							c-0.954-0.875-2.805,2.178-3.921,3.401c0.425-6.522,4.438-9.023,2.325-14.789c-6.756,3.911-10.955,11.686-10.956,18.946
							c-0.004,12.128,8.541,25.262,8.541,25.262C347.959,475.387,349.783,467.368,348.815,459.564z"/>
						<g>
							<polygon style="fill:#DEE0E2;" points="341.664,366.423 464.894,330.567 466.092,341.763 341.664,369.488 							"/>
							<polygon style="fill:#DEE0E2;" points="355.239,427.426 478.469,391.571 479.667,402.766 355.239,430.492 							"/>
							<polygon style="fill:#DEE0E2;" points="349.064,394.98 464.894,359.124 464.894,369.488 349.064,398.045 							"/>
						</g>
					</g>
				</g>
				<path style="fill:#2B3030;" d="M724.652,516.304c-0.009,0.01-0.023,0.018-0.039,0.027c-0.147,0.102-0.303,0.204-0.452,0.299
					c-0.03,0.025-0.065,0.043-0.095,0.061c-1.553,0.82-3.137,1.588-4.741,2.299c-39.462,17.382-94.407,0.206-138.208-12.682
					c-1.575-3.949-0.028-11.265-0.312-15.461c4.103,1.018,20.224-0.205,37.597-1.957c19.861-2.001,41.356-4.684,48.399-5.478
					c6.524-0.752,13.82-3.162,21.198-5.154c2.244-0.607,4.495-1.171,6.738-1.632c10.284-2.137,20.337-2.205,28.324,5.495
					C726.391,485.326,730.811,511.365,724.652,516.304z"/>
				<path style="fill:#0B1111;" d="M690.385,480.761c2.519,3.214,5.097,8.17,5.298,12.358c-1.552-1.906-7.356-11.27-12.568-9.702
					c-24.69,7.427-67.996,6.976-71.125,5.48l0.009-0.009c19.861-2.001,41.356-4.684,48.399-5.478
					c6.524-0.752,13.82-3.162,21.198-5.154c-6.337-21.922-12.342-47.132-14.297-55.157l-1.433-20.099
					c0,0,17.249,61.691,22.468,73.624c0.075,0.172,0.082,0.377,0.119,0.547c4.964-2.128,13.589,4.41,16.405,9.666
					C702.644,483.266,694.33,481.24,690.385,480.761z"/>
				<g>
					<path style="fill:#5C6363;" d="M807.725,312.554l-15.154,60.453l-1.538,9.114c-10.208,6.355-24.971,15.204-35.723,22.995
						c-1.058,0.773-2.081,1.535-3.06,2.273c-0.383,0.291-0.772,0.59-1.161,0.875c-2.328,1.77-4.616,3.475-6.829,5.085
						c-1.573,1.127-3.118,2.208-4.605,3.223c-5.204,3.555-9.78,6.297-13.131,7.635c0,0.006-0.006,0.006-0.012,0.012
						c-23.672,17.963-58.509,21.398-92.654,21.049c-14.498-0.149-28.871-0.986-42.214-1.683c-2.397-3.407-3.214-11.386-1.984-18.347
						c4.152,0.029,17.444-1.146,33.635-6.778c5.256-1.827,10.621-3.733,15.756-5.582c12.96-4.665,24.273-9.828,29.198-10.671
						c31.376-5.324,63.296-40.07,92.282-63.85C775.27,326.274,789.977,319.154,807.725,312.554z"/>
					<path style="fill:#464C4C;" d="M792.571,373.007l-1.538,9.114c-10.208,6.355-24.971,15.204-35.723,22.995
						c-1.058,0.773-2.081,1.535-3.06,2.273c-0.383,0.291-0.772,0.59-1.161,0.875c-2.328,1.77-4.616,3.475-6.829,5.085
						c-1.573,1.127-3.118,2.208-4.605,3.223c-5.204,3.555-9.78,6.297-13.131,7.635c0,0.006-0.006,0.006-0.012,0.012
						c-23.672,17.963-58.509,21.398-92.654,21.049c22.438-3.304,49.964-6.99,55.455-8.06c7.201-1.403,10.861-6.68,10.369-15.004
						c10.901,6.4,41.917-16.624,48.54-21.662C752.307,397.434,777.993,381.783,792.571,373.007z"/>
				</g>
			</g>
			<g>
				<g>
					<polygon style="fill:#FFFFFF;" points="829.133,896.669 811.968,906.546 835.516,906.546 831.087,896.669 					"/>
					<polygon style="fill:#FFFFFF;" points="917.894,896.31 929.336,906.905 910.534,906.905 912.116,896.669 					"/>
					<path style="fill:#1F2323;" d="M824.874,899.121c1,0.659,3.001,1.54,8.425,2.484c0.746-0.964,0.633-111.859,1.063-199.268
						c0.128-26.457,0.305-50.765,0.57-69.22v-0.076c0.279-19.044,0.646-31.841,1.152-34.299c0.006-0.052,0.019-0.096,0.033-0.14
						c0.018-0.082,0.037-0.165,0.063-0.241c0.334-1.197,0.74-2.104,1.202-2.705c0.069-0.096,0.151-0.183,0.233-0.267
						c0.633-0.64,34.763,79.421,61.366,227.441c0,0.006,0.007,0.019,0.007,0.025c4.386,24.417,8.57,50.689,12.361,78.749
						l8.387-3.586c-13.229-160.373-17.596-329.934-37.155-375.65l-83.57-5.214C765.268,573.31,814.912,844.466,824.874,899.121z"/>
					<g>
						<path style="fill:#0B1111;" d="M806.019,551.574c2.487,5.05,15.38,35.396,16.749,41.458c0.6,2.61,5.904,63.619,11.595,109.305
							c0.128-26.457,0.305-50.765,0.57-69.22v-0.076c-0.107-17.232,0.216-30.53,1.152-34.299c0.006-0.052,0.019-0.096,0.033-0.14
							c0.018-0.082,0.037-0.165,0.063-0.241c0.24-1.121,0.632-2.028,1.202-2.705c0.069-0.096,0.151-0.183,0.233-0.267
							c0.633-0.64,34.763,79.421,61.366,227.441c-12.848-78.179-38.598-219.383-43.446-229.19c3.906-3.756,9.425-4.192,13.293-6.645
							c-10.211-0.45-22.434-2.097-31.498-7.887C834.388,577.239,812.342,557.605,806.019,551.574z"/>
					</g>
				</g>
				<path style="fill:#1B3B56;" d="M780.64,556.316c8.872,2.536,22.047,4.021,36.29,4.852c4.445,0.262,8.979,0.451,13.53,0.6
					c2.274,0.077,4.552,0.136,6.813,0.178c0.522,0.012,1.045,0.023,1.561,0.03c27.796,0.552,53.462-0.558,54.122-0.469
					c0.03-0.053-6.782-21.841-0.339-47.833c-0.854-57.1,5.759-127.989,15.331-187.269c-12.618-6.937-19.763-8.918-29.436-12.339
					c-2.654-0.945-4.985-2.175-6.866-3.921l-58.592,8.909c-5.121,2.847-10.415,5.454-16.118,8.679
					c-8.023,4.537-16.835,10.265-27.055,19.494c-3.898,3.523-0.742,25.559,6.493,54.261c3.394,13.477,4.771,35.134,11.66,39.749
					C809.547,455.647,782.552,551.593,780.64,556.316z"/>
				<path style="fill:#FCA76D;" d="M890.055,316.732c-0.339,1.059-40.157,20.928-61.594,10.485
					c-13.649-6.643-32.794,6.469-20.789-11.665c0.424-0.641,0.653-1.669,0.726-3.001c0.036-0.75,0.023-1.597-0.031-2.528
					c-0.079-1.319-0.254-2.814-0.507-4.435c-0.895-5.76-2.769-13.136-4.885-20.257c-0.067-0.236-0.14-0.472-0.206-0.702
					c-0.949-3.177-1.946-6.299-2.914-9.185c-2.23-6.632-4.359-12.083-5.574-14.339l51.831-38.566
					c-1.989,1.518-0.713,16.499,4.08,34.185c0.816,3.02,1.741,6.117,2.768,9.24c1.585,4.815,12.453,39.169,13.137,40.555
					C873.244,320.973,877.741,312.539,890.055,316.732z"/>
				<path style="fill:#E86E52;" d="M852.962,265.963c1.585,4.815,3.415,9.687,5.501,14.412
					c-5.658,10.232-9.653,18.781-20.389,24.843c-7.091,4-20.197,5.936-29.706,4.805c-0.079-1.319-0.254-2.814-0.507-4.435
					c-0.895-5.76-2.769-13.136-4.885-20.257c-0.067-0.236-0.14-0.472-0.206-0.702c-0.949-3.177-1.946-6.299-2.914-9.185
					l50.337-18.721C851.01,259.742,851.935,262.84,852.962,265.963z"/>
				<g>
					<g>
						<g>
							<path style="fill:#214E6D;" d="M864.158,301.427c-2.298,7.178-9.38,9.993-15.348,14.482
								c-6.488,4.879-14.478,8.209-21.724,11.311c4.783,4.298,5.575,14.641,6.758,20.571c1.489,7.466,0.268,15.38,0.55,22.875
								c22.806-11.773,48.082-30.198,61.045-52.966L864.158,301.427z"/>
						</g>
						<g>
							<path style="fill:#214E6D;" d="M807.725,312.554c0,0,13.493,11.564,20.739,14.666c-4.782,4.298-5.575,14.641-6.757,20.571
								c-1.492,7.466-0.27,15.38-0.551,22.875c-22.806-11.773-22.726-18.747-29.635-39.656L807.725,312.554z"/>
						</g>
					</g>
				</g>
				<path style="fill:#5C6363;" d="M842.305,591.735c28.397,16.31,57.944-0.825,65.201-0.891
					c-0.936-11.411-2.313-38.657-2.842-73.285c-0.853-57.1,0.731-125.824,10.303-185.103c1.14-7.064-5.465-10.805-13.584-13.198
					c-8.224-2.423-18.004-3.469-22.87-5.191c-1.43,8.196-11.436,53.992-21.044,106.4L838.989,556.41v0.024
					c-0.072,1.901-0.126,3.749-0.155,5.541C838.596,575.602,839.599,586.05,842.305,591.735z"/>
				<path style="fill:#5C6363;" d="M776.374,592.627c1.909-4.723,12.765-127.939-5.271-188.902
					c-8.398-28.382-6.365-56.752-2.468-60.277c10.218-9.228,21.773-15.771,29.795-20.31c4.904,25.38,19.122,239.504,21.284,269.489
					C805.475,591.796,785.241,595.16,776.374,592.627z"/>
				<polygon style="fill:#464C4C;" points="838.989,556.41 838.989,556.422 890.054,351.148 878.773,333.501 901.382,319.257 
					901.703,319.054 864.158,301.427 857.468,420.466 				"/>
				<polygon style="fill:#464C4C;" points="807.725,312.554 775.027,336.97 797.963,351.413 786.678,369.059 815.967,542.994 				
					"/>
				<g>
					<g>
						<path style="fill:#FCA76D;" d="M788.297,234.954c-2.574-6.604-7.395-8.434-10.314-5.071
							c-3.676,4.245-1.087,12.839,1.115,18.099c2.076,4.954,6.303,11.365,10.374,14.518
							C800.632,271.151,788.297,234.954,788.297,234.954z"/>
						<path style="fill:#E86E52;" d="M788.422,240.261c-3.69-10.516-7.462-12.86-10.023-5.252
							c-1.779,5.276,2.299,11.175,4.514,15.475c-1.686-3.738-2.037-14.87,2.089-9.436c3.524,4.634,5.911,13.707,6.959,13.506
							C791.961,254.554,790.208,245.359,788.422,240.261z"/>
					</g>
					<path style="fill:#FCA76D;" d="M851.866,292.255c20.366-20.935,14.208-47.607,9.746-65.186
						c-2.048-8.045-4.68-16.099-7.725-23.582c-2.451-6.017-5.174-11.663-8.072-16.655c-2.539-4.363-5.214-8.219-7.971-11.378
						c-3.878-4.432-7.914-7.483-11.937-8.605c0,0-13.678,2.008-20.064,3.998c-9.628,3.003-15.306,5.534-19.395,14.409
						c-0.615,1.345-1.091,3.888-1.453,7.298c-1.261,11.997-1.054,34.693-0.346,53.163c0.348,9.192,1.08,17.324,1.3,22.603
						C788.417,327.599,841.491,302.92,851.866,292.255z"/>
					<path style="fill:#E86E52;" d="M805.297,262.32c-0.758-16.471,1.059-25.473-1.063-33.691c0,0-2.173,31.161-1.924,36.324
						c6.081,1.642,11.65,3.141,16.042-1.844C813.392,264.397,809.227,265.401,805.297,262.32z"/>
					<path style="fill:#AD3C23;" d="M791.434,210.459c-5.957,0.768-11.309,3.963-14.876,5.973l5.222,6.359
						c3.642-2.467,13.164-3.04,19.329-4.376C800.607,214.205,799.291,209.447,791.434,210.459z"/>
					<g>
						<g>
							<path style="fill:#20344C;" d="M839.144,227.445c0.735,5.033-1.189,9.486-4.295,9.941c-1.295,0.192-2.6-0.345-3.729-1.41
								c-1.575-1.475-2.803-3.945-3.232-6.876c-0.733-5.034,1.187-9.491,4.296-9.951c0.227-0.032,0.458-0.045,0.684-0.034
								C835.736,219.254,838.461,222.783,839.144,227.445z"/>
							<path style="fill:#06090C;" d="M836.099,225.999c0.734,5.035-1.184,9.486-4.294,9.943c-0.23,0.033-0.462,0.047-0.684,0.034
								c-1.575-1.475-2.803-3.945-3.232-6.876c-0.733-5.034,1.187-9.491,4.296-9.951c0.227-0.032,0.458-0.045,0.684-0.034
								C834.443,220.59,835.671,223.069,836.099,225.999z"/>
							<path style="fill:#FFFFFF;" d="M837.417,227.695c0.134,0.899-0.381,1.721-1.143,1.831c-0.76,0.114-1.486-0.526-1.619-1.424
								c-0.129-0.9,0.38-1.719,1.144-1.831C836.561,226.158,837.286,226.798,837.417,227.695z"/>
						</g>
						<path style="fill:#E86E52;" d="M843.524,226.49c-2.748-2.553-6.684-4.218-11.103-4.363c-4.416-0.142-8.452,1.257-11.366,3.625
							c1.321-5.739,6.079-9.905,11.582-9.722C838.146,216.213,842.605,220.677,843.524,226.49z"/>
					</g>
					<g>
						<g>
							<path style="fill:#20344C;" d="M798.432,232.86c0.744,5.034-1.185,9.485-4.29,9.939c-1.296,0.194-2.604-0.342-3.733-1.408
								c-1.569-1.473-2.797-3.945-3.226-6.876c-0.737-5.031,1.186-9.496,4.294-9.951c0.228-0.033,0.463-0.047,0.689-0.035
								C795.029,224.669,797.757,228.195,798.432,232.86z"/>
							<path style="fill:#06090C;" d="M795.394,231.41c0.734,5.037-1.188,9.485-4.294,9.944c-0.229,0.033-0.462,0.05-0.691,0.037
								c-1.569-1.473-2.797-3.945-3.226-6.876c-0.737-5.031,1.186-9.496,4.294-9.951c0.228-0.033,0.463-0.047,0.689-0.035
								C793.737,226.004,794.965,228.483,795.394,231.41z"/>
							<path style="fill:#FFFFFF;" d="M796.714,233.108c0.129,0.899-0.38,1.722-1.148,1.831c-0.758,0.114-1.486-0.524-1.615-1.424
								c-0.132-0.9,0.38-1.72,1.139-1.83C795.854,231.572,796.58,232.208,796.714,233.108z"/>
						</g>
						<path style="fill:#E86E52;" d="M802.817,231.905c-2.745-2.555-6.683-4.219-11.097-4.365
							c-4.424-0.144-8.453,1.259-11.368,3.626c1.319-5.739,6.078-9.904,11.578-9.722
							C797.442,221.626,801.896,226.092,802.817,231.905z"/>
					</g>
					<path style="fill:#AD3C23;" d="M822.269,202.707c6.219-2.147,14.195-2.036,19.4-2.06l1.239,7.614
						c-5.696-0.314-15.025,3.653-21.977,5.436C817.382,210.031,814.063,205.543,822.269,202.707z"/>
					<g>
						<path style="fill:#E86E52;" d="M796.282,272.582c1.353,1.156,2.961,4.159,5.297,7.227c0.208,0.276,0.419,0.545,0.637,0.818
							c0.654,0.81,1.363,1.611,2.129,2.375c1.896,1.882,4.174,3.537,6.979,4.472c3.319,1.109,7.963,0.493,11.257-1.422
							c0.377-0.218,0.733-0.453,1.065-0.699c4.407-3.286,6.507-16.278,6.507-16.278c-1.252,0.513-2.618,1-4.06,1.451
							C816.29,273.591,802.827,275.027,796.282,272.582z"/>
						<path style="fill:#FFFFFF;" d="M796.282,272.582c1.474,1.263,1.303,2.091,3.996,5.431c6.87,3.839,19.447,1.099,22.821-1.682
							c2.161-1.781,2.239-2.702,2.994-5.805C816.29,273.591,802.827,275.027,796.282,272.582z"/>
					</g>
					<path style="fill:#681B11;" d="M871.961,240.177l-11.35,1.889c-0.511-4.362-1.194-8.717-1.978-12.996
						c-1.651-9.034-3.737-17.732-5.541-25.461l0.796-0.121l14.544-2.163c1.378,4.363,2.339,10.816,2.91,18.325
						C871.819,225.945,872.022,232.989,871.961,240.177z"/>
					<g>
						<path style="fill:#FCA76D;" d="M866.732,225.992c2.055-6.912,8.36-9.42,13.221-6.513c6.132,3.669,4.522,12.55,2.67,18.076
							c-1.742,5.203-6.149,12.16-11.098,15.87C857.955,263.606,866.732,225.992,866.732,225.992z"/>
						<path style="fill:#E86E52;" d="M867.795,231.262c2.697-10.943,7.421-13.809,12.78-6.648
							c3.715,4.962-0.601,11.391-2.694,15.969c1.483-3.945-0.626-15.011-5.123-9.039c-3.841,5.099-5.056,14.428-6.565,14.379
							C866.192,245.923,866.489,236.568,867.795,231.262z"/>
					</g>
					<path style="opacity:0.3;fill:#405C66;" d="M784.65,245.717c21.375,4.287,45.252-0.87,63.822-10.521
						c1.777-0.919,5.657-3.159,10.161-6.126c0.966-0.633,1.97-1.302,2.98-2.001c3.258-2.252,6.666-4.793,9.729-7.42
						c-0.57-7.51-1.531-13.962-2.91-18.325l-14.544,2.163c-2.451-6.017-5.174-11.663-8.072-16.655
						c-20.34-1.558-41.273-0.029-60.819,5.721C783.736,204.551,783.942,227.247,784.65,245.717z"/>
					<g>
						<g>
							<path style="fill:#0C7EC4;" d="M876.723,214.181c-16.554,9.217-35.382,12.507-53.99,15.763
								c-5.106,0.899-10.333,1.435-15.503,1.706c-19.636,1.038-38.41-1.816-46.686-4.122c-15.07-4.209-15.213-10.177,2.46-18.971
								c1.391-0.697,2.501-1.856,3.399-3.312c2.949-4.756,3.674-12.66,4.97-17.61c2.895-10.976,8.054-19.495,15.029-25.682
								c2.729-2.422,5.733-4.482,8.996-6.196c7.742-4.069,16.901-6.154,27.099-6.347c1.878-0.034,3.794-0.009,5.749,0.083
								c1.682,0.084,3.392,0.21,5.118,0.383c4.86,0.487,9.665,2.027,14.212,4.589c0.376,0.216,0.755,0.435,1.135,0.667
								c0.588,0.35,1.169,0.725,1.748,1.117c1.254,0.847,2.479,1.779,3.682,2.79C866.347,169.304,875.525,187.923,876.723,214.181z"
								/>
							<path style="fill:#0E9AE0;" d="M876.723,214.181c-16.554,9.217-35.382,12.507-53.99,15.763
								c-5.106,0.899-10.333,1.435-15.503,1.706c-19.636,1.038-38.41-1.816-46.686-4.122c-15.07-4.209-15.213-10.177,2.46-18.971
								c1.391-0.697,2.501-1.856,3.399-3.312c2.493,2.748,5.992,5.027,8.789,6.074c0.164,0.066,0.325,0.125,0.488,0.177
								c1.369,0.463,2.755,0.855,4.156,1.201c6.615,1.637,13.527,2.046,20.298,1.613c1.233-0.078,2.464-0.152,3.706-0.223
								c1.524-0.091,3.064-0.185,4.594-0.284c9.556-0.613,19.132-1.447,28.129-4.091c1.542-0.444,3.068-0.951,4.57-1.517
								c2.042-0.761,4.045-1.633,6.007-2.646c0.203-0.109,0.417-0.221,0.615-0.332c12.269-6.742,14.617-21.417,10.478-34.234
								c-1.295-4.024-3.007-7.38-5.053-10.274c-0.955-1.373-1.994-2.631-3.101-3.811c-0.342-0.363-0.686-0.718-1.05-1.066
								c-0.466-0.468-0.955-0.922-1.451-1.368c0.376,0.216,0.755,0.435,1.135,0.667c0.588,0.35,1.169,0.725,1.748,1.117
								c1.254,0.847,2.479,1.779,3.682,2.79C866.347,169.304,875.525,187.923,876.723,214.181z"/>
							<path style="fill:#0E9AE0;" d="M781.09,190.595c-1.573,7.526-1.481,14.652-1.254,22.103c0.017,0.561,0.032,1.121,0.049,1.681
								c0.056,1.757,0.114,3.526,0.148,5.338l-4.595,0.09c-0.037-1.786-0.093-3.542-0.15-5.281c-0.03-1.074-0.063-2.149-0.095-3.206
								c-0.191-7.194-0.18-14.151,1.393-21.67c2.074-9.89,5.45-19.308,9.817-27.696c2.729-2.422,5.733-4.482,8.996-6.196
								C788.817,165.593,783.802,177.643,781.09,190.595z"/>
							<path style="fill:#0E9AE0;" d="M809.642,190.163c-1.688,8.044-1.458,15.626-1.208,23.641l0.001,0.146
								c0.058,1.756,0.117,3.525,0.151,5.339l-4.598,0.09c-0.035-1.789-0.091-3.543-0.148-5.283l0.001-0.008
								c-0.258-8.352-0.505-16.232,1.296-24.87c3.139-15.012,9.288-28.906,17.362-39.807c1.878-0.034,3.794-0.009,5.749,0.083
								C819.565,160.182,812.91,174.519,809.642,190.163z"/>
							<path style="fill:#0E9AE0;" d="M854.143,159.04c-0.336,0.559-0.658,1.114-0.963,1.671c-0.492,0.883-0.977,1.773-1.439,2.684
								c-4.121,7.94-7.305,16.864-9.271,26.276c-1.322,6.312-1.462,12.343-1.337,18.525c0.025,1.633,0.079,3.283,0.126,4.947
								c0.011,0.106,0.012,0.206,0.013,0.313c0.05,1.756,0.106,3.529,0.141,5.337l-4.598,0.092
								c-0.006-0.591-0.024-1.174-0.039-1.749c-0.033-1.19-0.067-2.369-0.101-3.535c-0.038-1.313-0.085-2.598-0.111-3.888
								c-0.18-6.946-0.113-13.699,1.409-20.988c2.366-11.32,6.438-21.999,11.773-31.238c0.112-0.203,0.224-0.394,0.335-0.588
								c0.129-0.216,0.255-0.433,0.382-0.649C851.715,157.097,852.94,158.029,854.143,159.04z"/>
						</g>
						<path style="opacity:0.8;fill:#CECECE;" d="M876.723,214.181c-16.554,9.217-35.382,12.507-53.99,15.763
							c-5.106,0.899-10.333,1.435-15.503,1.706c10.913-3.156,21.297-7.923,29.544-14.514c1.576-1.26,3.072-2.584,4.484-3.994
							c2.465-2.424,4.648-5.065,6.497-7.925c5.701-8.784,8.275-19.61,5.993-32.708c-0.563-3.23-1.203-6.258-2.007-9.115
							c-0.574-2.054-1.225-4.016-1.997-5.908c-0.224-0.556-0.462-1.113-0.716-1.654c-0.104-0.236-0.205-0.475-0.316-0.701
							c0.588,0.35,1.169,0.725,1.748,1.117c1.254,0.847,2.479,1.779,3.682,2.79C866.347,169.304,875.525,187.923,876.723,214.181z"
							/>
					</g>
				</g>
				<g>
					<path style="fill:#5C6363;" d="M895.436,387.072l3.911,13.965l0.783,2.792l1.572,5.619c0.391,1.219,1.223,3.124,2.369,5.537
						c0.004,0,0.004,0.006,0,0.012c5.245,11.102,17.014,32.936,22.882,48.243c0.179,0.452,0.351,0.909,0.529,1.355
						c1.056,2.726,2.106,5.381,3.157,7.911c0.748,1.788,1.496,3.517,2.225,5.162c3.045,6.824,5.935,12.229,8.339,14.814
						c5.198,5.577,13.27,7.353,21.091,5.393c1.805-0.452,3.603-1.105,5.347-1.954c0.036-0.019,0.076-0.031,0.107-0.055
						c0.172-0.083,0.343-0.166,0.51-0.255c0.023-0.006,0.036-0.012,0.047-0.025c4.416-2.291,1.401,2.585,4.416-2.291
						c1.121-1.813,1.816-4.752,2.124-8.608c3.157-39.232-33.837-172.587-73.159-158.035L895.436,387.072z"/>
					<g>
						<g>
							<path style="fill:#FFFFFF;" d="M821.292,380.41c0,0,0.727,1.039,2.053,2.956c12.759,18.433,81.078,118.166,94.709,160.201
								c7.578,23.362,20.571,20.15,31.721,11.025c11.256-9.209,20.624-24.445,20.624-24.445s-76.702-106.246-85.572-172.75
								C875.959,290.892,821.292,380.41,821.292,380.41z"/>
							<path style="fill:#DEE0E2;" d="M863.522,378.831c-3.255,3.055-10.911,10.068-15.751,6.507
								c-5.952-4.383,0.882-14.022,2.533-18.455c-5.229,5.912-18.875,19.92-9.749,29.217c5.794,5.898,12.899,2.321,19.754,2.951
								c7.657,0.701,8.205,4.897,12.829,11.2c22.56,30.747,37.623,67.418,55.417,101.133c7.482,14.169,14.472,28.637,21.22,43.208
								c11.256-9.209,20.624-24.445,20.624-24.445s-76.702-106.246-85.572-172.75c-8.869-66.505-63.536,23.013-63.536,23.013
								s0.727,1.039,2.053,2.956c12.409-12.579,30.99-45.486,47.347-34.164C882.114,357.112,870.267,372.518,863.522,378.831z"/>
						</g>
						<g>
							<path style="fill:#FFFFFF;" d="M763.046,410.302c0,0,0.988,0.812,2.793,2.31c17.363,14.432,110.621,92.689,135.315,129.63
								c13.728,20.53,25.364,14.044,33.596,2.341c8.312-11.808,13.145-28.933,13.145-28.933s-103.127-82.345-129.967-144.102
								C791.088,309.79,763.046,410.302,763.046,410.302z"/>
							<path style="fill:#DEE0E2;" d="M803.299,397.759c-2.297,3.792-7.742,12.547-13.386,10.379
								c-6.94-2.669-3.007-13.739-2.637-18.441c-3.411,7.06-12.703,24.117-1.355,30.694c7.206,4.169,13.067-1.132,19.844-2.313
								c7.571-1.322,9.253,2.578,15.442,7.443c30.192,23.737,54.793,55.135,81.21,82.973c11.106,11.699,21.822,23.813,32.332,36.089
								c8.312-11.808,13.145-28.933,13.145-28.933s-103.127-82.345-129.967-144.102c-26.84-61.758-54.882,38.754-54.882,38.754
								s0.988,0.812,2.793,2.31c8.495-15.355,17.344-51.909,36.217-45.267C815.236,371.982,808.058,389.917,803.299,397.759z"/>
						</g>
					</g>
					<path style="fill:#FCA76D;" d="M806.361,454.323c3.134,1.963,5.957,4.54,8.813,7.08c0,0,2.69-0.53,0.793-4.984
						c5.711-2.159,13.023,16.22,21.757,17.457l-6.528,14.256c-7.719-3.506-17.426-0.472-23.884-7.575
						C802.118,474.846,803.43,461.317,806.361,454.323z"/>
					<path style="fill:#5C6363;" d="M828.823,488.085c42.799,13.317,96.477,31.007,135.471,14.541
						c1.59-0.672,3.156-1.402,4.688-2.187c0.03-0.018,0.066-0.034,0.095-0.059c0.149-0.09,0.303-0.185,0.451-0.286
						c0.018-0.006,0.03-0.011,0.035-0.023c5.104-3.968,6.392-9.647,5.282-15.385c-1.928-9.991-11.109-20.171-20.046-21.864
						c-5.566-1.057-11.24-0.795-16.92-0.024c-3.472,0.47-6.942,1.13-10.397,1.794c-4.795,0.927-9.554,1.859-14.225,2.316
						c-4.972,0.487-17.216,1.806-30.925,3.124c-5.435,0.524-11.103,1.046-16.646,1.522c-17.08,1.455-30.254-0.683-34.265-1.741
						C828.514,476.252,827.339,484.188,828.823,488.085z"/>
					<path style="fill:#464C4C;" d="M882.333,470.033c4.332,0.464,8.546,0.88,12.362,0.874c6.557-0.005,13.067,0.498,19.584,1.057
						c7.287,0.618,11.678,4.348,18.259,6.588c0.126-0.292,0.238-0.589,0.326-0.885c0.844-2.631,0.553-5.452-0.926-7.805
						c5.674,1.877,12.035,2.311,17.869,4.781c-2.711-3.938-6.944-8.82-11.928-11.844c-1.447-0.873-2.955-1.598-4.509-2.09
						c-0.808-9.112-34.022-59.672-34.022-59.672s3.946,10.079,4.724,13.947c0.004,0,12,33.076,22.882,48.255
						c0.283,0.394,0.351,0.909,0.529,1.355c-4.795,0.927-9.554,1.859-14.225,2.316C908.286,467.396,896.042,468.715,882.333,470.033
						z"/>
				</g>
			</g>
		</g>
	</g>
</g>
</svg>
