<svg xmlns="http://www.w3.org/2000/svg" version="1.1" xmlns:xlink="http://www.w3.org/1999/xlink" xmlns:svgjs="http://svgjs.dev/svgjs" width="2000" height="212" viewBox="0 0 2000 212"><g transform="matrix(1,0,0,1,-1.2121212121212466,0.45393796920427576)"><svg viewBox="0 0 396 42" data-background-color="#ffffff" preserveAspectRatio="xMidYMid meet" height="212" width="2000" xmlns="http://www.w3.org/2000/svg" xmlns:xlink="http://www.w3.org/1999/xlink"><g id="tight-bounds" transform="matrix(1,0,0,1,0.2400000000000091,-0.08993110710650853)"><svg viewBox="0 0 395.52 42.17986221421302" height="42.17986221421302" width="395.52"><g><svg viewBox="0 0 469.90715019924494 50.11281060092449" height="42.17986221421302" width="395.52"><g><rect width="3.270061487997041" height="36.44238397534668" x="62.55671832382107" y="6.835213312788905" fill="#31302e" opacity="1" stroke-width="0" stroke="transparent" fill-opacity="1" class="rect-yte-0" data-fill-palette-color="primary" rx="1%" id="yte-0" data-palette-color="#31302e"></rect></g><g transform="matrix(1,0,0,1,74.38715019924493,6.9258660092449915)"><svg viewBox="0 0 395.52 36.26107858243451" height="36.26107858243451" width="395.52"><g id="textblocktransform"><svg viewBox="0 0 395.52 36.26107858243451" height="36.26107858243451" width="395.52" id="textblock"><g><svg viewBox="0 0 395.52 36.26107858243451" height="36.26107858243451" width="395.52"><g transform="matrix(1,0,0,1,0,0)"><svg width="395.52" viewBox="3 -35 399.63 35.7" height="36.26107858243451" data-palette-color="#31302e"><g class="wordmark-text-0" data-fill-palette-color="primary" id="text-0"><path d="M9.45-35L9.45-35 16.5-35Q18.75-35 20.58-34.35 22.4-33.7 23.65-32.48 24.9-31.25 25.58-29.53 26.25-27.8 26.25-25.6L26.25-25.6Q26.25-23.2 25.13-21 24-18.8 22.08-17.43 20.15-16.05 17.75-16.05L17.75-16.05Q18.6-15.7 19.6-14.63 20.6-13.55 21.35-12.55L21.35-12.55Q21.35-12.55 22.03-11.58 22.7-10.6 23.73-9.2 24.75-7.8 25.8-6.45 26.85-5.1 27.6-4.3L27.6-4.3Q28.6-3.2 29.6-2.35 30.6-1.5 31.78-1 32.95-0.5 34.4-0.5L34.4-0.5 34.4 0 31.65 0Q29.35 0 27.68-0.7 26-1.4 24.85-2.43 23.7-3.45 22.9-4.4L22.9-4.4Q22.75-4.6 22.08-5.55 21.4-6.5 20.48-7.83 19.55-9.15 18.65-10.45 17.75-11.75 17.1-12.68 16.45-13.6 16.35-13.75L16.35-13.75Q15.4-15 14.25-16.05 13.1-17.1 11.75-17.1L11.75-17.1 11.75-17.6Q11.75-17.6 12.53-17.57 13.3-17.55 14.4-17.6L14.4-17.6Q15.7-17.65 17.25-18 18.8-18.35 20.15-19.45 21.5-20.55 22.2-22.8L22.2-22.8Q22.35-23.35 22.45-24.18 22.55-25 22.5-25.8L22.5-25.8Q22.45-29.2 20.78-31.23 19.1-33.25 16.3-33.4L16.3-33.4Q14.9-33.5 13.43-33.48 11.95-33.45 10.95-33.45 9.95-33.45 9.95-33.45L9.95-33.45Q9.95-33.5 9.83-33.88 9.7-34.25 9.58-34.63 9.45-35 9.45-35ZM6.85-35L10.1-35 10.1 0 6.85 0 6.85-35ZM6.85-3.65L7-3.65 7 0 3 0 3-0.5Q3-0.5 3.33-0.5 3.65-0.5 3.65-0.5L3.65-0.5Q4.95-0.5 5.88-1.43 6.8-2.35 6.85-3.65L6.85-3.65ZM7-35L7-31.35 6.85-31.35Q6.8-32.65 5.88-33.58 4.95-34.5 3.65-34.5L3.65-34.5Q3.65-34.5 3.33-34.5 3-34.5 3-34.5L3-34.5 3-35 7-35ZM9.95 0L9.95-3.65 10.1-3.65Q10.1-2.35 11.05-1.43 12-0.5 13.3-0.5L13.3-0.5Q13.3-0.5 13.6-0.5 13.9-0.5 13.9-0.5L13.9-0.5 13.9 0 9.95 0ZM40.2-30L43.4-30 43.4 0 40.2 0 40.2-30ZM43.3-1.55L56.85-1.55 56.75 0 43.3 0 43.3-1.55ZM43.3-15.75L54.5-15.75 54.5-14.25 43.3-14.25 43.3-15.75ZM43.3-30L56.8-30 56.8-28.45 43.3-28.45 43.3-30ZM59.15-7.15L59.65-7.15 56.9 0 49.3 0 51-1.55Q53.5-1.55 55.02-2.27 56.55-3 57.5-4.28 58.45-5.55 59.15-7.15L59.15-7.15ZM51.9-14.35L54.5-14.35 54.5-11.5 53.95-11.5 53.95-12.15Q53.95-13 53.45-13.63 52.95-14.25 51.9-14.25L51.9-14.25 51.9-14.35ZM53.95-18.5L54.5-18.5 54.5-15.65 51.9-15.65 51.9-15.75Q52.95-15.75 53.45-16.38 53.95-17 53.95-17.85L53.95-17.85 53.95-18.5ZM53.75-28.6L56.8-28.6 56.8-25.15 56.25-25.15 56.25-25.9Q56.25-26.95 55.57-27.7 54.9-28.45 53.75-28.45L53.75-28.45 53.75-28.6ZM56.8-30.8L56.8-30.8 56.8-29.5 51.1-30Q52.65-30 54.4-30.28 56.15-30.55 56.8-30.8ZM40.2-3.2L40.3-3.2 40.95 0 36.6 0 36.6-0.5Q36.6-0.5 36.95-0.5 37.3-0.5 37.3-0.5L37.3-0.5Q38.55-0.5 39.35-1.3 40.15-2.1 40.2-3.2L40.2-3.2ZM40.95-30L40.3-26.85 40.2-26.85Q40.15-28 39.35-28.75 38.55-29.5 37.3-29.5L37.3-29.5Q37.3-29.5 36.95-29.5 36.6-29.5 36.6-29.5L36.6-29.5 36.6-30 40.95-30ZM67.05-25.55L66.55-30.75 94.25-4.65 94.75 0.7 67.05-25.55ZM66.5-3.1L66.65-3.1 66.65 0 62.9 0 62.9-0.5Q62.9-0.5 63.32-0.5 63.75-0.5 63.75-0.5L63.75-0.5Q64.9-0.5 65.7-1.25 66.5-2 66.5-3.1L66.5-3.1ZM68.6-3.1L68.75-3.1Q68.75-2 69.57-1.25 70.4-0.5 71.5-0.5L71.5-0.5Q71.5-0.5 71.92-0.5 72.35-0.5 72.35-0.5L72.35-0.5 72.35 0 68.6 0 68.6-3.1ZM66.05-30.75L66.55-30.75 68.7-27.95 68.75 0 66.5 0 66.5-24.5Q66.5-27.05 66.27-28.9 66.05-30.75 66.05-30.75L66.05-30.75ZM92.55-30L94.75-30 94.75-5.7Q94.75-4.1 94.85-2.63 94.95-1.15 95.07-0.23 95.2 0.7 95.2 0.7L95.2 0.7 94.75 0.7 92.55-1.95 92.55-30ZM94.75-26.9L94.6-26.9 94.6-30 98.35-30 98.35-29.5Q98.35-29.5 97.92-29.5 97.5-29.5 97.5-29.5L97.5-29.5Q96.4-29.5 95.57-28.75 94.75-28 94.75-26.9L94.75-26.9ZM92.65-26.9L92.55-26.9Q92.5-28 91.7-28.75 90.9-29.5 89.75-29.5L89.75-29.5Q89.75-29.5 89.32-29.5 88.9-29.5 88.9-29.5L88.9-29.5 88.9-30 92.65-30 92.65-26.9ZM119.44-30.7L119.44-30.7Q122.94-30.7 126.02-29.58 129.09-28.45 131.42-26.35 133.74-24.25 135.04-21.38 136.34-18.5 136.34-15L136.34-15Q136.34-11.5 135.04-8.63 133.74-5.75 131.42-3.65 129.09-1.55 126.02-0.43 122.94 0.7 119.44 0.7L119.44 0.7Q115.94 0.7 112.89-0.43 109.84-1.55 107.52-3.65 105.19-5.75 103.89-8.63 102.59-11.5 102.59-15L102.59-15Q102.59-18.5 103.89-21.38 105.19-24.25 107.52-26.35 109.84-28.45 112.89-29.58 115.94-30.7 119.44-30.7ZM119.44-0.8L119.44-0.8Q123.14-0.8 126.14-2.6 129.14-4.4 130.89-7.6 132.64-10.8 132.64-15L132.64-15Q132.64-19.25 130.89-22.43 129.14-25.6 126.14-27.4 123.14-29.2 119.44-29.2L119.44-29.2Q115.79-29.2 112.79-27.4 109.79-25.6 108.04-22.43 106.29-19.25 106.29-15L106.29-15Q106.29-10.8 108.04-7.6 109.79-4.4 112.79-2.6 115.79-0.8 119.44-0.8ZM155.99-3.75L155.14 0.7 141.39-29.7 145.34-29.7 155.99-3.75ZM155.59 0.7L155.14 0.7 154.79-2.75 166.24-29.85 169.39-29.85 157.54-4.45Q157.54-4.45 157.27-3.85 156.99-3.25 156.62-2.38 156.24-1.5 155.94-0.65 155.64 0.2 155.59 0.7L155.59 0.7ZM167.74-26.35L164.79-26.35Q165.34-27.85 164.64-28.68 163.94-29.5 163.04-29.5L163.04-29.5 162.69-29.5 162.69-30 172.19-30 172.19-29.5Q172.19-29.5 171.99-29.5 171.79-29.5 171.79-29.5L171.79-29.5Q170.74-29.5 169.64-28.78 168.54-28.05 167.74-26.35L167.74-26.35ZM146.69-26.35L146.69-26.35 142.89-26.35Q142.14-28.05 141.04-28.78 139.94-29.5 138.94-29.5L138.94-29.5Q138.94-29.5 138.74-29.5 138.54-29.5 138.54-29.5L138.54-29.5 138.54-30 148.79-30 148.79-29.5 148.39-29.5Q147.54-29.5 146.87-28.68 146.19-27.85 146.69-26.35ZM187.89-26.25L188.74-30.7 202.49-0.3 198.54-0.3 187.89-26.25ZM176.14-3.65L179.09-3.65Q178.54-2.15 179.24-1.33 179.94-0.5 180.84-0.5L180.84-0.5 181.24-0.5 181.24 0 171.69 0 171.69-0.5Q171.69-0.5 171.89-0.5 172.09-0.5 172.09-0.5L172.09-0.5Q173.14-0.5 174.24-1.23 175.34-1.95 176.14-3.65L176.14-3.65ZM188.29-30.7L188.74-30.7 189.09-27.25 177.64-0.15 174.49-0.15 186.34-25.55Q186.34-25.55 186.61-26.15 186.89-26.75 187.26-27.63 187.64-28.5 187.94-29.35 188.24-30.2 188.29-30.7L188.29-30.7ZM181.39-11.65L194.64-11.65 194.64-10.15 181.39-10.15 181.39-11.65ZM197.19-3.65L197.19-3.65 200.99-3.65Q201.74-1.95 202.84-1.23 203.94-0.5 204.94-0.5L204.94-0.5Q204.94-0.5 205.14-0.5 205.34-0.5 205.34-0.5L205.34-0.5 205.34 0 195.09 0 195.09-0.5 195.49-0.5Q196.34-0.5 197.04-1.33 197.74-2.15 197.19-3.65ZM217.94-29.85L221.19-29.85 221.19 0 217.94 0 217.94-29.85ZM205.84-30.05L233.29-30.05 233.29-28.55 205.84-28.55 205.84-30.05ZM230.24-28.65L233.29-28.65 233.29-25.2 232.74-25.2 232.74-26Q232.74-27.05 232.06-27.78 231.39-28.5 230.24-28.55L230.24-28.55 230.24-28.65ZM233.29-30.85L233.29-30.85 233.29-29.55 227.69-30.05Q228.69-30.05 229.81-30.18 230.94-30.3 231.89-30.5 232.84-30.7 233.29-30.85ZM217.94-3.2L218.04-3.2 218.04 0 214.39 0 214.39-0.5Q214.44-0.5 214.71-0.5 214.99-0.5 214.99-0.5L214.99-0.5Q216.19-0.5 217.04-1.3 217.89-2.1 217.94-3.2L217.94-3.2ZM221.04 0L221.04-3.2 221.19-3.2Q221.24-2.1 222.09-1.3 222.94-0.5 224.14-0.5L224.14-0.5Q224.14-0.5 224.41-0.5 224.69-0.5 224.69-0.5L224.69-0.5 224.69 0 221.04 0ZM205.84-28.65L208.89-28.65 208.89-28.55Q207.74-28.5 207.06-27.78 206.39-27.05 206.39-26L206.39-26 206.39-25.2 205.84-25.2 205.84-28.65ZM205.84-29.55L205.84-30.85Q206.29-30.7 207.21-30.5 208.14-30.3 209.29-30.18 210.44-30.05 211.44-30.05L211.44-30.05 205.84-29.55ZM240.83-30L243.98-30 243.98 0 240.83 0 240.83-30ZM240.83-3.2L240.98-3.2 240.98 0 236.73 0 236.73-0.5Q236.73-0.5 237.08-0.5 237.43-0.5 237.43-0.5L237.43-0.5Q238.83-0.5 239.81-1.3 240.78-2.1 240.83-3.2L240.83-3.2ZM243.83 0L243.83-3.2 243.98-3.2Q244.03-2.1 245.01-1.3 245.98-0.5 247.38-0.5L247.38-0.5Q247.38-0.5 247.71-0.5 248.03-0.5 248.03-0.5L248.03-0.5 248.08 0 243.83 0ZM243.98-26.8L243.83-26.8 243.83-30 248.08-30 248.03-29.5Q248.03-29.5 247.71-29.5 247.38-29.5 247.38-29.5L247.38-29.5Q245.98-29.5 245.01-28.73 244.03-27.95 243.98-26.8L243.98-26.8ZM240.98-30L240.98-26.8 240.83-26.8Q240.78-27.95 239.81-28.73 238.83-29.5 237.43-29.5L237.43-29.5Q237.38-29.5 237.06-29.5 236.73-29.5 236.73-29.5L236.73-29.5 236.73-30 240.98-30ZM270.13-30.7L270.13-30.7Q273.63-30.7 276.71-29.58 279.78-28.45 282.11-26.35 284.43-24.25 285.73-21.38 287.03-18.5 287.03-15L287.03-15Q287.03-11.5 285.73-8.63 284.43-5.75 282.11-3.65 279.78-1.55 276.71-0.43 273.63 0.7 270.13 0.7L270.13 0.7Q266.63 0.7 263.58-0.43 260.53-1.55 258.21-3.65 255.88-5.75 254.58-8.63 253.28-11.5 253.28-15L253.28-15Q253.28-18.5 254.58-21.38 255.88-24.25 258.21-26.35 260.53-28.45 263.58-29.58 266.63-30.7 270.13-30.7ZM270.13-0.8L270.13-0.8Q273.83-0.8 276.83-2.6 279.83-4.4 281.58-7.6 283.33-10.8 283.33-15L283.33-15Q283.33-19.25 281.58-22.43 279.83-25.6 276.83-27.4 273.83-29.2 270.13-29.2L270.13-29.2Q266.48-29.2 263.48-27.4 260.48-25.6 258.73-22.43 256.98-19.25 256.98-15L256.98-15Q256.98-10.8 258.73-7.6 260.48-4.4 263.48-2.6 266.48-0.8 270.13-0.8ZM295.38-25.55L294.88-30.75 322.58-4.65 323.08 0.7 295.38-25.55ZM294.83-3.1L294.98-3.1 294.98 0 291.23 0 291.23-0.5Q291.23-0.5 291.65-0.5 292.08-0.5 292.08-0.5L292.08-0.5Q293.23-0.5 294.03-1.25 294.83-2 294.83-3.1L294.83-3.1ZM296.93-3.1L297.08-3.1Q297.08-2 297.9-1.25 298.73-0.5 299.83-0.5L299.83-0.5Q299.83-0.5 300.25-0.5 300.68-0.5 300.68-0.5L300.68-0.5 300.68 0 296.93 0 296.93-3.1ZM294.38-30.75L294.88-30.75 297.03-27.95 297.08 0 294.83 0 294.83-24.5Q294.83-27.05 294.6-28.9 294.38-30.75 294.38-30.75L294.38-30.75ZM320.88-30L323.08-30 323.08-5.7Q323.08-4.1 323.18-2.63 323.28-1.15 323.4-0.23 323.53 0.7 323.53 0.7L323.53 0.7 323.08 0.7 320.88-1.95 320.88-30ZM323.08-26.9L322.93-26.9 322.93-30 326.68-30 326.68-29.5Q326.68-29.5 326.25-29.5 325.83-29.5 325.83-29.5L325.83-29.5Q324.73-29.5 323.9-28.75 323.08-28 323.08-26.9L323.08-26.9ZM320.98-26.9L320.88-26.9Q320.83-28 320.03-28.75 319.23-29.5 318.08-29.5L318.08-29.5Q318.08-29.5 317.65-29.5 317.23-29.5 317.23-29.5L317.23-29.5 317.23-30 320.98-30 320.98-26.9Z" fill="#31302e" data-fill-palette-color="primary"></path><path d="M348.63-35L348.63-35 355.23-35Q358.43-35 360.73-33.85 363.03-32.7 364.28-30.53 365.53-28.35 365.53-25.35L365.53-25.35Q365.53-23.05 364.63-21.23 363.73-19.4 362.23-18.15 360.73-16.9 358.83-16.28 356.93-15.65 354.9-15.8 352.88-15.95 350.98-16.95L350.98-16.95 350.98-17.45Q350.98-17.45 351.83-17.32 352.68-17.2 354-17.28 355.33-17.35 356.8-17.82 358.28-18.3 359.55-19.5 360.83-20.7 361.48-22.85L361.48-22.85Q361.63-23.4 361.73-24.23 361.83-25.05 361.78-25.85L361.78-25.85Q361.73-29.3 359.98-31.4 358.23-33.5 355.03-33.5L355.03-33.5 349.13-33.5Q349.13-33.5 349-33.88 348.88-34.25 348.75-34.63 348.63-35 348.63-35ZM346.03-35L349.28-35 349.28 0 346.03 0 346.03-35ZM346.03-3.65L346.18-3.65 346.18 0 342.18 0 342.18-0.5Q342.18-0.5 342.5-0.5 342.83-0.5 342.83-0.5L342.83-0.5Q344.13-0.5 345.05-1.43 345.98-2.35 346.03-3.65L346.03-3.65ZM346.18-35L346.18-31.35 346.03-31.35Q346.03-32.65 345.08-33.58 344.13-34.5 342.83-34.5L342.83-34.5Q342.83-34.5 342.53-34.5 342.23-34.5 342.23-34.5L342.23-34.5 342.18-35 346.18-35ZM349.13 0L349.13-3.65 349.28-3.65Q349.33-2.35 350.25-1.43 351.18-0.5 352.48-0.5L352.48-0.5Q352.48-0.5 352.8-0.5 353.13-0.5 353.13-0.5L353.13-0.5 353.13 0 349.13 0ZM395.93-30L399.13-30 399.13 0 395.93 0 395.93-30ZM374.28-30L377.48-30 377.48 0 374.28 0 374.28-30ZM376.93-15.55L396.43-15.55 396.43-14.05 376.93-14.05 376.93-15.55ZM374.28-3.2L374.43-3.2 374.43 0 370.78 0 370.78-0.5Q370.78-0.5 371.08-0.5 371.38-0.5 371.38-0.5L371.38-0.5Q372.58-0.5 373.4-1.3 374.23-2.1 374.28-3.2L374.28-3.2ZM377.33 0L377.33-3.2 377.48-3.2Q377.48-2.1 378.33-1.3 379.18-0.5 380.38-0.5L380.38-0.5Q380.38-0.5 380.68-0.5 380.98-0.5 380.98-0.5L380.98-0.5 380.98 0 377.33 0ZM377.48-26.8L377.33-26.8 377.33-30 380.98-30 380.98-29.5Q380.98-29.5 380.68-29.5 380.38-29.5 380.38-29.5L380.38-29.5Q379.18-29.5 378.33-28.73 377.48-27.95 377.48-26.8L377.48-26.8ZM374.43-30L374.43-26.8 374.28-26.8Q374.23-27.95 373.4-28.73 372.58-29.5 371.38-29.5L371.38-29.5Q371.38-29.5 371.08-29.5 370.78-29.5 370.78-29.5L370.78-29.5 370.78-30 374.43-30ZM395.93-3.2L396.08-3.2 396.08 0 392.43 0 392.43-0.5Q392.43-0.5 392.73-0.5 393.02-0.5 393.02-0.5L393.02-0.5Q394.23-0.5 395.05-1.3 395.88-2.1 395.93-3.2L395.93-3.2ZM398.98 0L398.98-3.2 399.13-3.2Q399.18-2.1 400-1.3 400.83-0.5 402.02-0.5L402.02-0.5Q402.02-0.5 402.33-0.5 402.63-0.5 402.63-0.5L402.63-0.5 402.63 0 398.98 0ZM399.13-26.8L398.98-26.8 398.98-30 402.63-30 402.63-29.5Q402.63-29.5 402.33-29.5 402.02-29.5 402.02-29.5L402.02-29.5Q400.83-29.5 400-28.73 399.18-27.95 399.13-26.8L399.13-26.8ZM396.08-30L396.08-26.8 395.93-26.8Q395.88-27.95 395.05-28.73 394.23-29.5 393.02-29.5L393.02-29.5Q393.02-29.5 392.73-29.5 392.43-29.5 392.43-29.5L392.43-29.5 392.43-30 396.08-30Z" fill="#8a8d56" data-fill-palette-color="accent"></path></g></svg></g></svg></g></svg></g></svg></g><g><svg viewBox="0 0 53.996347936394265 50.11281060092449" height="50.11281060092449" width="53.996347936394265"><g><svg xmlns="http://www.w3.org/2000/svg" xmlns:xlink="http://www.w3.org/1999/xlink" version="1.1" x="0" y="0" viewBox="5 8.237 90 83.527" enable-background="new 0 0 100 100" xml:space="preserve" height="50.11281060092449" width="53.996347936394265" class="icon-icon-0" data-fill-palette-color="accent" id="icon-0"><g fill="#8a8d56" data-fill-palette-color="accent"><g fill="#8a8d56" data-fill-palette-color="accent"><path d="M83.616 91.764H55.339V69.264H44.672V91.764H16.386V54.108H5L49.994 8.237 64.865 23.377V16.321H78.428V37.196L95 54.11H83.616zM56.781 90.32H82.173V52.666H91.567L76.984 37.784V17.763H66.307V26.904L49.994 10.297 8.437 52.666H17.829V90.319H43.23V67.821H56.782z" fill="#8a8d56" data-fill-palette-color="accent"></path></g></g></svg></g></svg></g></svg></g><defs></defs></svg><rect width="395.52" height="42.17986221421302" fill="none" stroke="none" visibility="hidden"></rect></g></svg></g></svg>